# MagicaVoxel @ Ephtracy

# group
o 

# material
mtllib clown6.mtl
usemtl palette

# normals
vn -1 0 0
vn 1 0 0
vn 0 0 1
vn 0 0 -1
vn 0 -1 0
vn 0 1 0

# texcoords
vt 0.982422 0.5
vt 0.990234 0.5

# verts
v -0.3 1.4 0.4
v -0.3 1.4 -0.2
v -0.3 1.5 0.4
v -0.3 1.5 -0.2
v -0.2 1.5 0.3
v -0.2 1.5 -0.1
v -0.2 1.6 0.3
v -0.2 1.6 -0.1
v -0.2 1.7 0.3
v -0.2 1.7 -0.1
v 0.1 1.5 0.2
v 0.1 1.5 0
v 0.1 1.6 0.2
v 0.1 1.6 0
v 0.2 1.4 0.3
v 0.2 1.4 -0.1
v 0.2 1.5 0.3
v 0.2 1.5 -0.1
v -0.2 1.4 0.3
v -0.2 1.4 -0.1
v -0.2 1.5 0.3
v -0.2 1.5 -0.1
v -0.1 1.5 0.2
v -0.1 1.5 0
v -0.1 1.6 0.2
v -0.1 1.6 0
v 0.2 1.5 0.3
v 0.2 1.5 -0.1
v 0.2 1.6 0.3
v 0.2 1.6 -0.1
v 0.2 1.7 0.3
v 0.2 1.7 -0.1
v 0.3 1.4 0.4
v 0.3 1.4 -0.2
v 0.3 1.5 0.4
v 0.3 1.5 -0.2
v -0.3 1.4 0.4
v -0.3 1.5 0.4
v 0.3 1.4 0.4
v 0.3 1.5 0.4
v -0.2 1.5 0.3
v -0.2 1.6 0.3
v -0.2 1.7 0.3
v 0.2 1.5 0.3
v 0.2 1.6 0.3
v 0.2 1.7 0.3
v -0.1 1.5 0
v -0.1 1.6 0
v 0.1 1.5 0
v 0.1 1.6 0
v -0.2 1.4 -0.1
v -0.2 1.5 -0.1
v 0.2 1.4 -0.1
v 0.2 1.5 -0.1
v -0.2 1.4 0.3
v -0.2 1.5 0.3
v 0.2 1.4 0.3
v 0.2 1.5 0.3
v -0.1 1.5 0.2
v -0.1 1.6 0.2
v 0.1 1.5 0.2
v 0.1 1.6 0.2
v -0.2 1.5 -0.1
v -0.2 1.6 -0.1
v -0.2 1.7 -0.1
v 0.2 1.5 -0.1
v 0.2 1.6 -0.1
v 0.2 1.7 -0.1
v -0.3 1.4 -0.2
v -0.3 1.5 -0.2
v 0.3 1.4 -0.2
v 0.3 1.5 -0.2
v -0.3 1.4 0.4
v 0.3 1.4 0.4
v -0.2 1.4 0.3
v 0.2 1.4 0.3
v -0.2 1.4 -0.1
v 0.2 1.4 -0.1
v -0.3 1.4 -0.2
v 0.3 1.4 -0.2
v -0.2 1.5 0.3
v 0.2 1.5 0.3
v -0.1 1.5 0.2
v 0.1 1.5 0.2
v -0.1 1.5 0
v 0.1 1.5 0
v -0.2 1.5 -0.1
v 0.2 1.5 -0.1
v -0.1 1.6 0.2
v 0.1 1.6 0.2
v -0.1 1.6 0
v 0.1 1.6 0
v -0.3 1.5 0.4
v 0.3 1.5 0.4
v -0.2 1.5 0.3
v 0.2 1.5 0.3
v -0.2 1.5 -0.1
v 0.2 1.5 -0.1
v -0.3 1.5 -0.2
v 0.3 1.5 -0.2
v -0.2 1.7 0.3
v 0.2 1.7 0.3
v -0.2 1.7 -0.1
v 0.2 1.7 -0.1

# faces
f 3/1/1 2/1/1 1/1/1
f 4/1/1 2/1/1 3/1/1
f 7/2/1 6/2/1 5/2/1
f 8/2/1 6/2/1 7/2/1
f 9/1/1 8/1/1 7/1/1
f 10/1/1 8/1/1 9/1/1
f 13/2/1 12/2/1 11/2/1
f 14/2/1 12/2/1 13/2/1
f 17/1/1 16/1/1 15/1/1
f 18/1/1 16/1/1 17/1/1
f 19/1/2 20/1/2 21/1/2
f 21/1/2 20/1/2 22/1/2
f 23/2/2 24/2/2 25/2/2
f 25/2/2 24/2/2 26/2/2
f 27/2/2 28/2/2 29/2/2
f 29/2/2 28/2/2 30/2/2
f 29/1/2 30/1/2 31/1/2
f 31/1/2 30/1/2 32/1/2
f 33/1/2 34/1/2 35/1/2
f 35/1/2 34/1/2 36/1/2
f 39/1/3 38/1/3 37/1/3
f 40/1/3 38/1/3 39/1/3
f 44/2/3 42/2/3 41/2/3
f 45/1/3 43/1/3 42/1/3
f 45/2/3 42/2/3 44/2/3
f 46/1/3 43/1/3 45/1/3
f 49/2/3 48/2/3 47/2/3
f 50/2/3 48/2/3 49/2/3
f 53/1/3 52/1/3 51/1/3
f 54/1/3 52/1/3 53/1/3
f 55/1/4 56/1/4 57/1/4
f 57/1/4 56/1/4 58/1/4
f 59/2/4 60/2/4 61/2/4
f 61/2/4 60/2/4 62/2/4
f 63/2/4 64/2/4 66/2/4
f 64/1/4 65/1/4 67/1/4
f 66/2/4 64/2/4 67/2/4
f 67/1/4 65/1/4 68/1/4
f 69/1/4 70/1/4 71/1/4
f 71/1/4 70/1/4 72/1/4
f 75/1/5 74/1/5 73/1/5
f 76/1/5 74/1/5 75/1/5
f 77/1/5 75/1/5 73/1/5
f 78/1/5 74/1/5 76/1/5
f 79/1/5 77/1/5 73/1/5
f 79/1/5 78/1/5 77/1/5
f 80/1/5 74/1/5 78/1/5
f 80/1/5 78/1/5 79/1/5
f 83/2/5 82/2/5 81/2/5
f 84/2/5 82/2/5 83/2/5
f 85/2/5 83/2/5 81/2/5
f 86/2/5 82/2/5 84/2/5
f 87/2/5 85/2/5 81/2/5
f 87/2/5 86/2/5 85/2/5
f 88/2/5 82/2/5 86/2/5
f 88/2/5 86/2/5 87/2/5
f 91/1/5 90/1/5 89/1/5
f 92/1/5 90/1/5 91/1/5
f 93/1/6 94/1/6 95/1/6
f 95/1/6 94/1/6 96/1/6
f 93/1/6 95/1/6 97/1/6
f 96/1/6 94/1/6 98/1/6
f 93/1/6 97/1/6 99/1/6
f 97/1/6 98/1/6 99/1/6
f 98/1/6 94/1/6 100/1/6
f 99/1/6 98/1/6 100/1/6
f 101/1/6 102/1/6 103/1/6
f 103/1/6 102/1/6 104/1/6
