# MagicaVoxel @ Ephtracy

# group
o 

# material
mtllib human.mtl
usemtl palette

# normals
vn 1 0 0
vn -1 0 0
vn 0 0 1
vn 0 0 -1
vn 0 -1 0
vn 0 1 0

# texcoords
vt 0.970703 0.5
vt 0.974609 0.5
vt 0.978516 0.5
vt 0.982422 0.5
vt 0.986328 0.5
vt 0.990234 0.5
vt 0.994141 0.5

# verts
v 0.6 0.7 0.2
v 0.6 0.7 -0.1
v 0.6 1.1 0.2
v 0.6 1.1 -0.1
v 0.6 1.4 0.2
v 0.6 1.4 -0.1
v 0.5 0.5 0.8
v 0.5 0.5 0.7
v 0.5 0.6 0.9
v 0.5 0.6 0.8
v 0.5 0.8 1
v 0.5 0.8 0.9
v 0.5 0.8 0.7
v 0.5 0.8 0.2
v 0.5 1 1
v 0.5 1 0.9
v 0.5 1 0.7
v 0.5 1 0.2
v 0.5 1.2 0.9
v 0.5 1.2 0.8
v 0.5 1.3 0.8
v 0.5 1.3 0.7
v 0.5 1.6 0.1
v 0.5 1.6 -0.1
v 0.5 1.9 0.1
v 0.5 1.9 -0.1
v 0.5 2 0.4
v 0.5 2 -0.4
v 0.5 2.1 0.4
v 0.5 2.1 -0.4
v 0.4 0.4 0.4
v 0.4 0.4 -0.4
v 0.4 0.7 0.4
v 0.4 0.7 0.2
v 0.4 0.7 -0.1
v 0.4 0.7 -0.4
v 0.4 0.8 0.4
v 0.4 0.8 0.2
v 0.4 0.8 -0.1
v 0.4 0.8 -0.4
v 0.4 1 0.4
v 0.4 1 0.2
v 0.4 1.1 0.2
v 0.4 1.1 -0.1
v 0.4 1.3 0.4
v 0.4 1.3 0.2
v 0.4 1.3 -0.1
v 0.4 1.3 -0.4
v 0.4 1.4 0.4
v 0.4 1.4 0.2
v 0.4 1.4 -0.1
v 0.4 1.4 -0.4
v 0.4 1.5 0.4
v 0.4 1.5 -0.4
v 0.4 1.6 0.4
v 0.4 1.6 0.1
v 0.4 1.6 -0.1
v 0.4 1.6 -0.4
v 0.4 1.9 0.1
v 0.4 1.9 -0.1
v 0.4 2 0.5
v 0.4 2 0.4
v 0.4 2 -0.4
v 0.4 2 -0.5
v 0.4 2.1 0.5
v 0.4 2.1 0.4
v 0.4 2.1 -0.4
v 0.4 2.1 -0.5
v 0.4 2.2 0.4
v 0.4 2.2 -0.4
v 0.4 2.3 0.4
v 0.4 2.3 -0.4
v 0.3 0 0.1
v 0.3 0 -0.1
v 0.3 0.4 0.1
v 0.3 0.4 -0.1
v 0.3 2.3 0.3
v 0.3 2.3 -0.3
v 0.3 2.4 0.3
v 0.3 2.4 -0.3
v -0.1 0 0.1
v -0.1 0 -0.1
v -0.1 0.4 0.1
v -0.1 0.4 -0.1
v -0.3 0.5 0.3
v -0.3 0.5 -0.3
v -0.3 0.7 0.3
v -0.3 0.7 -0.3
v -0.3 0.8 0.3
v -0.3 0.8 -0.3
v -0.3 1.3 0.3
v -0.3 1.3 -0.3
v -0.3 1.4 0.3
v -0.3 1.4 -0.3
v -0.3 1.5 0.3
v -0.3 1.5 -0.3
v -0.3 1.6 0.3
v -0.3 1.6 0.1
v -0.3 1.6 -0.1
v -0.3 1.6 -0.3
v -0.3 1.9 0.1
v -0.3 1.9 -0.1
v -0.3 2 0.3
v -0.3 2 -0.3
v -0.3 2.1 0.3
v -0.3 2.1 -0.3
v -0.3 2.2 0.3
v -0.3 2.2 -0.3
v -0.3 2.3 0.3
v -0.3 2.3 -0.3
v 0.4 0.5 0.8
v 0.4 0.5 0.7
v 0.4 0.6 0.9
v 0.4 0.6 0.8
v 0.4 0.8 1
v 0.4 0.8 0.9
v 0.4 0.8 0.7
v 0.4 0.8 0.4
v 0.4 1 1
v 0.4 1 0.9
v 0.4 1 0.7
v 0.4 1 0.4
v 0.4 1.2 0.9
v 0.4 1.2 0.8
v 0.4 1.3 0.8
v 0.4 1.3 0.7
v 0.3 0.5 0.3
v 0.3 0.5 0
v 0.3 0.5 -0.1
v 0.3 0.5 -0.3
v 0.3 0.7 0.3
v 0.3 0.7 -0.3
v 0.3 0.8 0.3
v 0.3 0.8 -0.3
v 0.3 1.3 0.3
v 0.3 1.3 -0.3
v 0.3 1.4 0.3
v 0.3 1.4 -0.3
v 0.3 1.5 0.3
v 0.3 1.5 -0.3
v 0.3 1.6 0.3
v 0.3 1.6 0.1
v 0.3 1.6 -0.1
v 0.3 1.6 -0.3
v 0.3 1.9 0.1
v 0.3 1.9 -0.1
v 0.3 2 0.3
v 0.3 2 -0.3
v 0.3 2.1 0.3
v 0.3 2.1 -0.3
v 0.3 2.2 0.3
v 0.3 2.2 -0.3
v 0.3 2.3 0.3
v 0.3 2.3 -0.3
v 0.1 0 0.1
v 0.1 0 -0.1
v 0.1 0.4 0.1
v 0.1 0.4 -0.1
v -0.3 0 0.1
v -0.3 0 -0.1
v -0.3 0.4 0.1
v -0.3 0.4 -0.1
v -0.3 2.3 0.3
v -0.3 2.3 -0.3
v -0.3 2.4 0.3
v -0.3 2.4 -0.3
v -0.4 0.4 0.4
v -0.4 0.4 -0.4
v -0.4 0.7 0.4
v -0.4 0.7 0.2
v -0.4 0.7 -0.1
v -0.4 0.7 -0.4
v -0.4 0.8 0.4
v -0.4 0.8 0.2
v -0.4 0.8 -0.1
v -0.4 0.8 -0.4
v -0.4 1.2 0.2
v -0.4 1.2 -0.1
v -0.4 1.3 0.4
v -0.4 1.3 0.2
v -0.4 1.3 -0.1
v -0.4 1.3 -0.4
v -0.4 1.4 0.4
v -0.4 1.4 0.2
v -0.4 1.4 -0.1
v -0.4 1.4 -0.4
v -0.4 1.5 0.4
v -0.4 1.5 -0.4
v -0.4 1.6 0.4
v -0.4 1.6 0.1
v -0.4 1.6 -0.1
v -0.4 1.6 -0.4
v -0.4 1.9 0.1
v -0.4 1.9 -0.1
v -0.4 2 0.5
v -0.4 2 0.4
v -0.4 2 -0.4
v -0.4 2 -0.5
v -0.4 2.1 0.5
v -0.4 2.1 0.4
v -0.4 2.1 -0.4
v -0.4 2.1 -0.5
v -0.4 2.2 0.4
v -0.4 2.2 -0.4
v -0.4 2.3 0.4
v -0.4 2.3 -0.4
v -0.5 1.6 0.1
v -0.5 1.6 -0.1
v -0.5 1.9 0.1
v -0.5 1.9 -0.1
v -0.5 2 0.4
v -0.5 2 -0.4
v -0.5 2.1 0.4
v -0.5 2.1 -0.4
v -0.6 0.7 0.2
v -0.6 0.7 -0.1
v -0.6 1.2 0.2
v -0.6 1.2 -0.1
v -0.6 1.4 0.2
v -0.6 1.4 -0.1
v 0.5 0.8 1
v 0.5 1 1
v 0.4 0.8 1
v 0.4 1 1
v 0.5 0.6 0.9
v 0.5 0.8 0.9
v 0.5 1 0.9
v 0.5 1.2 0.9
v 0.4 0.6 0.9
v 0.4 0.8 0.9
v 0.4 1 0.9
v 0.4 1.2 0.9
v 0.5 0.5 0.8
v 0.5 0.6 0.8
v 0.5 1.2 0.8
v 0.5 1.3 0.8
v 0.4 0.5 0.8
v 0.4 0.6 0.8
v 0.4 1.2 0.8
v 0.4 1.3 0.8
v 0.4 2 0.5
v 0.4 2.1 0.5
v -0.4 2 0.5
v -0.4 2.1 0.5
v 0.5 2 0.4
v 0.5 2.1 0.4
v 0.4 0.4 0.4
v 0.4 0.7 0.4
v 0.4 0.8 0.4
v 0.4 1 0.4
v 0.4 1.3 0.4
v 0.4 1.4 0.4
v 0.4 1.5 0.4
v 0.4 1.6 0.4
v 0.4 2 0.4
v 0.4 2.1 0.4
v 0.4 2.2 0.4
v 0.4 2.3 0.4
v 0.3 1.6 0.4
v 0.3 2 0.4
v 0.2 1.5 0.4
v 0.2 1.7 0.4
v 0.2 1.9 0.4
v 0.1 1.2 0.4
v 0.1 1.3 0.4
v 0.1 1.4 0.4
v 0.1 1.5 0.4
v 0.1 1.6 0.4
v 0.1 1.7 0.4
v 0.1 1.9 0.4
v -0.1 1.2 0.4
v -0.1 1.3 0.4
v -0.1 1.4 0.4
v -0.1 1.5 0.4
v -0.1 1.6 0.4
v -0.1 1.7 0.4
v -0.1 1.9 0.4
v -0.2 1.5 0.4
v -0.2 1.7 0.4
v -0.2 1.9 0.4
v -0.3 1.6 0.4
v -0.3 2 0.4
v -0.4 0.4 0.4
v -0.4 0.7 0.4
v -0.4 0.8 0.4
v -0.4 1.3 0.4
v -0.4 1.4 0.4
v -0.4 1.5 0.4
v -0.4 1.6 0.4
v -0.4 2 0.4
v -0.4 2.1 0.4
v -0.4 2.2 0.4
v -0.4 2.3 0.4
v -0.5 2 0.4
v -0.5 2.1 0.4
v 0.3 2.3 0.3
v 0.3 2.4 0.3
v -0.3 2.3 0.3
v -0.3 2.4 0.3
v 0.6 0.7 0.2
v 0.6 1.1 0.2
v 0.6 1.4 0.2
v 0.5 0.8 0.2
v 0.5 1 0.2
v 0.4 0.7 0.2
v 0.4 0.8 0.2
v 0.4 1 0.2
v 0.4 1.1 0.2
v 0.4 1.3 0.2
v 0.4 1.4 0.2
v -0.4 0.7 0.2
v -0.4 0.8 0.2
v -0.4 1.2 0.2
v -0.4 1.3 0.2
v -0.4 1.4 0.2
v -0.6 0.7 0.2
v -0.6 1.2 0.2
v -0.6 1.4 0.2
v 0.5 1.6 0.1
v 0.5 1.9 0.1
v 0.4 1.6 0.1
v 0.4 1.9 0.1
v 0.3 0 0.1
v 0.3 0.4 0.1
v 0.1 0 0.1
v 0.1 0.4 0.1
v -0.1 0 0.1
v -0.1 0.4 0.1
v -0.3 0 0.1
v -0.3 0.4 0.1
v -0.4 1.6 0.1
v -0.4 1.9 0.1
v -0.5 1.6 0.1
v -0.5 1.9 0.1
v 0.3 0.5 -0.3
v 0.3 0.7 -0.3
v 0.3 0.8 -0.3
v 0.3 1.3 -0.3
v 0.3 1.4 -0.3
v 0.3 1.5 -0.3
v 0.3 1.6 -0.3
v 0.3 2 -0.3
v 0.3 2.1 -0.3
v 0.3 2.2 -0.3
v 0.3 2.3 -0.3
v -0.3 0.5 -0.3
v -0.3 0.7 -0.3
v -0.3 0.8 -0.3
v -0.3 1.3 -0.3
v -0.3 1.4 -0.3
v -0.3 1.5 -0.3
v -0.3 1.6 -0.3
v -0.3 2 -0.3
v -0.3 2.1 -0.3
v -0.3 2.2 -0.3
v -0.3 2.3 -0.3
v 0.5 0.5 0.7
v 0.5 0.8 0.7
v 0.5 1 0.7
v 0.5 1.3 0.7
v 0.4 0.5 0.7
v 0.4 0.8 0.7
v 0.4 1 0.7
v 0.4 1.3 0.7
v 0.3 0.5 0.3
v 0.3 0.7 0.3
v 0.3 0.8 0.3
v 0.3 1.3 0.3
v 0.3 1.4 0.3
v 0.3 1.5 0.3
v 0.3 1.6 0.3
v 0.3 2 0.3
v 0.3 2.1 0.3
v 0.3 2.2 0.3
v 0.3 2.3 0.3
v 0.2 1.5 0.3
v 0.2 1.7 0.3
v 0.2 1.9 0.3
v 0.1 1.2 0.3
v 0.1 1.3 0.3
v 0.1 1.4 0.3
v 0.1 1.5 0.3
v 0.1 1.6 0.3
v 0.1 1.7 0.3
v 0.1 1.9 0.3
v -0.1 1.2 0.3
v -0.1 1.3 0.3
v -0.1 1.4 0.3
v -0.1 1.5 0.3
v -0.1 1.6 0.3
v -0.1 1.7 0.3
v -0.1 1.9 0.3
v -0.2 1.5 0.3
v -0.2 1.7 0.3
v -0.2 1.9 0.3
v -0.3 0.5 0.3
v -0.3 0.7 0.3
v -0.3 0.8 0.3
v -0.3 1.3 0.3
v -0.3 1.4 0.3
v -0.3 1.5 0.3
v -0.3 1.6 0.3
v -0.3 2 0.3
v -0.3 2.1 0.3
v -0.3 2.2 0.3
v -0.3 2.3 0.3
v 0.6 0.7 -0.1
v 0.6 1.1 -0.1
v 0.6 1.4 -0.1
v 0.5 1.6 -0.1
v 0.5 1.9 -0.1
v 0.4 0.7 -0.1
v 0.4 0.8 -0.1
v 0.4 1.1 -0.1
v 0.4 1.3 -0.1
v 0.4 1.4 -0.1
v 0.4 1.6 -0.1
v 0.4 1.9 -0.1
v 0.3 0 -0.1
v 0.3 0.4 -0.1
v 0.1 0 -0.1
v 0.1 0.4 -0.1
v -0.1 0 -0.1
v -0.1 0.4 -0.1
v -0.3 0 -0.1
v -0.3 0.4 -0.1
v -0.4 0.7 -0.1
v -0.4 0.8 -0.1
v -0.4 1.2 -0.1
v -0.4 1.3 -0.1
v -0.4 1.4 -0.1
v -0.4 1.6 -0.1
v -0.4 1.9 -0.1
v -0.5 1.6 -0.1
v -0.5 1.9 -0.1
v -0.6 0.7 -0.1
v -0.6 1.2 -0.1
v -0.6 1.4 -0.1
v 0.3 2.3 -0.3
v 0.3 2.4 -0.3
v -0.3 2.3 -0.3
v -0.3 2.4 -0.3
v 0.5 2 -0.4
v 0.5 2.1 -0.4
v 0.4 0.4 -0.4
v 0.4 0.7 -0.4
v 0.4 0.8 -0.4
v 0.4 1.3 -0.4
v 0.4 1.4 -0.4
v 0.4 1.5 -0.4
v 0.4 1.6 -0.4
v 0.4 2 -0.4
v 0.4 2.1 -0.4
v 0.4 2.2 -0.4
v 0.4 2.3 -0.4
v -0.4 0.4 -0.4
v -0.4 0.7 -0.4
v -0.4 0.8 -0.4
v -0.4 1.3 -0.4
v -0.4 1.4 -0.4
v -0.4 1.5 -0.4
v -0.4 1.6 -0.4
v -0.4 2 -0.4
v -0.4 2.1 -0.4
v -0.4 2.2 -0.4
v -0.4 2.3 -0.4
v -0.5 2 -0.4
v -0.5 2.1 -0.4
v 0.4 2 -0.5
v 0.4 2.1 -0.5
v -0.4 2 -0.5
v -0.4 2.1 -0.5
v 0.3 0 0.1
v 0.1 0 0.1
v -0.1 0 0.1
v -0.3 0 0.1
v 0.3 0 -0.1
v 0.1 0 -0.1
v -0.1 0 -0.1
v -0.3 0 -0.1
v 0.4 0.4 0.4
v -0.4 0.4 0.4
v 0.3 0.4 0.3
v -0.3 0.4 0.3
v 0.3 0.4 0.1
v 0.1 0.4 0.1
v -0.1 0.4 0.1
v -0.3 0.4 0.1
v 0.3 0.4 -0.1
v 0.1 0.4 -0.1
v -0.1 0.4 -0.1
v -0.3 0.4 -0.1
v 0.3 0.4 -0.3
v -0.3 0.4 -0.3
v 0.4 0.4 -0.4
v -0.4 0.4 -0.4
v 0.5 0.5 0.8
v 0.4 0.5 0.8
v 0.5 0.5 0.7
v 0.4 0.5 0.7
v 0.5 0.6 0.9
v 0.4 0.6 0.9
v 0.5 0.6 0.8
v 0.4 0.6 0.8
v 0.6 0.7 0.2
v 0.4 0.7 0.2
v -0.4 0.7 0.2
v -0.6 0.7 0.2
v 0.6 0.7 -0.1
v 0.4 0.7 -0.1
v -0.4 0.7 -0.1
v -0.6 0.7 -0.1
v 0.5 0.8 1
v 0.4 0.8 1
v 0.5 0.8 0.9
v 0.4 0.8 0.9
v 0.5 0.8 0.7
v 0.4 0.8 0.7
v 0.4 0.8 0.4
v 0.5 0.8 0.2
v 0.4 0.8 0.2
v 0.5 1.6 0.1
v 0.4 1.6 0.1
v -0.4 1.6 0.1
v -0.5 1.6 0.1
v 0.5 1.6 -0.1
v 0.4 1.6 -0.1
v -0.4 1.6 -0.1
v -0.5 1.6 -0.1
v 0.4 2 0.5
v -0.4 2 0.5
v 0.5 2 0.4
v 0.4 2 0.4
v 0.3 2 0.4
v -0.3 2 0.4
v -0.4 2 0.4
v -0.5 2 0.4
v 0.5 2 -0.4
v 0.4 2 -0.4
v -0.4 2 -0.4
v -0.5 2 -0.4
v 0.4 2 -0.5
v -0.4 2 -0.5
v 0.3 2.3 0.3
v -0.3 2.3 0.3
v 0.3 2.3 -0.3
v -0.3 2.3 -0.3
v 0.3 0.5 0.3
v -0.3 0.5 0.3
v 0.3 0.5 0
v 0.2 0.5 0
v 0.3 0.5 -0.1
v 0.2 0.5 -0.1
v 0.3 0.5 -0.3
v -0.3 0.5 -0.3
v 0.5 1 1
v 0.4 1 1
v 0.5 1 0.9
v 0.4 1 0.9
v 0.5 1 0.7
v 0.4 1 0.7
v 0.4 1 0.4
v 0.5 1 0.2
v 0.4 1 0.2
v 0.5 1.2 0.9
v 0.4 1.2 0.9
v 0.5 1.2 0.8
v 0.4 1.2 0.8
v 0.5 1.3 0.8
v 0.4 1.3 0.8
v 0.5 1.3 0.7
v 0.4 1.3 0.7
v 0.6 1.4 0.2
v 0.4 1.4 0.2
v -0.4 1.4 0.2
v -0.6 1.4 0.2
v 0.6 1.4 -0.1
v 0.4 1.4 -0.1
v -0.4 1.4 -0.1
v -0.6 1.4 -0.1
v 0.5 1.9 0.1
v 0.4 1.9 0.1
v -0.4 1.9 0.1
v -0.5 1.9 0.1
v 0.5 1.9 -0.1
v 0.4 1.9 -0.1
v -0.4 1.9 -0.1
v -0.5 1.9 -0.1
v 0.4 2.1 0.5
v -0.4 2.1 0.5
v 0.5 2.1 0.4
v 0.4 2.1 0.4
v -0.4 2.1 0.4
v -0.5 2.1 0.4
v 0.5 2.1 -0.4
v 0.4 2.1 -0.4
v -0.4 2.1 -0.4
v -0.5 2.1 -0.4
v 0.4 2.1 -0.5
v -0.4 2.1 -0.5
v 0.4 2.3 0.4
v -0.4 2.3 0.4
v 0.3 2.3 0.3
v -0.3 2.3 0.3
v 0.3 2.3 -0.3
v -0.3 2.3 -0.3
v 0.4 2.3 -0.4
v -0.4 2.3 -0.4
v 0.3 2.4 0.3
v -0.3 2.4 0.3
v 0.3 2.4 -0.3
v -0.3 2.4 -0.3

# faces
f 1/6/1 2/6/1 3/6/1
f 3/6/1 2/6/1 4/6/1
f 3/1/1 4/1/1 5/1/1
f 5/1/1 4/1/1 6/1/1
f 7/3/1 8/3/1 10/3/1
f 9/3/1 10/3/1 12/3/1
f 10/3/1 8/3/1 13/3/1
f 12/3/1 10/3/1 13/3/1
f 11/7/1 12/7/1 15/7/1
f 12/3/1 13/3/1 16/3/1
f 15/7/1 12/7/1 16/7/1
f 13/7/1 14/7/1 17/7/1
f 16/3/1 13/3/1 17/3/1
f 17/7/1 14/7/1 18/7/1
f 16/3/1 17/3/1 19/3/1
f 19/3/1 17/3/1 20/3/1
f 20/3/1 17/3/1 21/3/1
f 21/3/1 17/3/1 22/3/1
f 23/6/1 24/6/1 25/6/1
f 25/6/1 24/6/1 26/6/1
f 27/4/1 28/4/1 29/4/1
f 29/4/1 28/4/1 30/4/1
f 31/1/1 32/1/1 33/1/1
f 33/1/1 32/1/1 34/1/1
f 34/1/1 32/1/1 35/1/1
f 35/1/1 32/1/1 36/1/1
f 33/7/1 34/7/1 37/7/1
f 37/7/1 34/7/1 38/7/1
f 35/7/1 36/7/1 39/7/1
f 39/7/1 36/7/1 40/7/1
f 41/1/1 42/1/1 43/1/1
f 39/1/1 40/1/1 44/1/1
f 41/1/1 43/1/1 45/1/1
f 45/1/1 43/1/1 46/1/1
f 44/1/1 40/1/1 47/1/1
f 47/1/1 40/1/1 48/1/1
f 45/7/1 46/7/1 49/7/1
f 49/7/1 46/7/1 50/7/1
f 47/7/1 48/7/1 51/7/1
f 51/7/1 48/7/1 52/7/1
f 49/1/1 50/1/1 53/1/1
f 50/1/1 51/1/1 53/1/1
f 51/1/1 52/1/1 53/1/1
f 53/1/1 52/1/1 54/1/1
f 53/6/1 54/6/1 55/6/1
f 55/6/1 54/6/1 56/6/1
f 56/6/1 54/6/1 57/6/1
f 57/6/1 54/6/1 58/6/1
f 55/7/1 56/7/1 59/7/1
f 57/7/1 58/7/1 60/7/1
f 55/7/1 59/7/1 62/7/1
f 59/7/1 60/7/1 62/7/1
f 60/7/1 58/7/1 63/7/1
f 62/7/1 60/7/1 63/7/1
f 61/4/1 62/4/1 65/4/1
f 65/4/1 62/4/1 66/4/1
f 63/4/1 64/4/1 67/4/1
f 67/4/1 64/4/1 68/4/1
f 66/5/1 67/5/1 69/5/1
f 69/5/1 67/5/1 70/5/1
f 69/4/1 70/4/1 71/4/1
f 71/4/1 70/4/1 72/4/1
f 73/7/1 74/7/1 75/7/1
f 75/7/1 74/7/1 76/7/1
f 77/4/1 78/4/1 79/4/1
f 79/4/1 78/4/1 80/4/1
f 81/7/1 82/7/1 83/7/1
f 83/7/1 82/7/1 84/7/1
f 85/1/1 86/1/1 87/1/1
f 87/1/1 86/1/1 88/1/1
f 87/7/1 88/7/1 89/7/1
f 89/7/1 88/7/1 90/7/1
f 89/1/1 90/1/1 91/1/1
f 91/1/1 90/1/1 92/1/1
f 91/7/1 92/7/1 93/7/1
f 93/7/1 92/7/1 94/7/1
f 93/1/1 94/1/1 95/1/1
f 95/1/1 94/1/1 96/1/1
f 95/6/1 96/6/1 97/6/1
f 97/6/1 96/6/1 98/6/1
f 98/6/1 96/6/1 99/6/1
f 99/6/1 96/6/1 100/6/1
f 97/7/1 98/7/1 101/7/1
f 98/6/1 99/6/1 101/6/1
f 99/7/1 100/7/1 102/7/1
f 101/6/1 99/6/1 102/6/1
f 97/7/1 101/7/1 103/7/1
f 101/7/1 102/7/1 103/7/1
f 102/7/1 100/7/1 104/7/1
f 103/7/1 102/7/1 104/7/1
f 103/4/1 104/4/1 105/4/1
f 105/4/1 104/4/1 106/4/1
f 105/5/1 106/5/1 107/5/1
f 107/5/1 106/5/1 108/5/1
f 107/4/1 108/4/1 109/4/1
f 109/4/1 108/4/1 110/4/1
f 114/3/2 112/3/2 111/3/2
f 116/3/2 114/3/2 113/3/2
f 117/3/2 112/3/2 114/3/2
f 117/3/2 114/3/2 116/3/2
f 119/7/2 116/7/2 115/7/2
f 120/3/2 117/3/2 116/3/2
f 120/7/2 116/7/2 119/7/2
f 121/7/2 118/7/2 117/7/2
f 121/3/2 117/3/2 120/3/2
f 122/7/2 118/7/2 121/7/2
f 123/3/2 121/3/2 120/3/2
f 124/3/2 121/3/2 123/3/2
f 125/3/2 121/3/2 124/3/2
f 126/3/2 121/3/2 125/3/2
f 131/1/2 128/1/2 127/1/2
f 131/1/2 130/1/2 129/1/2
f 131/1/2 129/1/2 128/1/2
f 132/1/2 130/1/2 131/1/2
f 133/7/2 132/7/2 131/7/2
f 134/7/2 132/7/2 133/7/2
f 135/1/2 134/1/2 133/1/2
f 136/1/2 134/1/2 135/1/2
f 137/7/2 136/7/2 135/7/2
f 138/7/2 136/7/2 137/7/2
f 139/1/2 138/1/2 137/1/2
f 140/1/2 138/1/2 139/1/2
f 141/6/2 140/6/2 139/6/2
f 142/6/2 140/6/2 141/6/2
f 143/6/2 140/6/2 142/6/2
f 144/6/2 140/6/2 143/6/2
f 145/7/2 142/7/2 141/7/2
f 145/6/2 143/6/2 142/6/2
f 146/7/2 144/7/2 143/7/2
f 146/6/2 143/6/2 145/6/2
f 147/7/2 145/7/2 141/7/2
f 147/7/2 146/7/2 145/7/2
f 148/7/2 144/7/2 146/7/2
f 148/7/2 146/7/2 147/7/2
f 149/4/2 148/4/2 147/4/2
f 150/4/2 148/4/2 149/4/2
f 151/5/2 150/5/2 149/5/2
f 152/5/2 150/5/2 151/5/2
f 153/4/2 152/4/2 151/4/2
f 154/4/2 152/4/2 153/4/2
f 157/7/2 156/7/2 155/7/2
f 158/7/2 156/7/2 157/7/2
f 161/7/2 160/7/2 159/7/2
f 162/7/2 160/7/2 161/7/2
f 165/4/2 164/4/2 163/4/2
f 166/4/2 164/4/2 165/4/2
f 169/1/2 168/1/2 167/1/2
f 170/1/2 168/1/2 169/1/2
f 171/1/2 168/1/2 170/1/2
f 172/1/2 168/1/2 171/1/2
f 173/7/2 170/7/2 169/7/2
f 174/7/2 170/7/2 173/7/2
f 175/7/2 172/7/2 171/7/2
f 176/7/2 172/7/2 175/7/2
f 177/1/2 174/1/2 173/1/2
f 178/1/2 176/1/2 175/1/2
f 179/1/2 177/1/2 173/1/2
f 180/1/2 177/1/2 179/1/2
f 181/1/2 176/1/2 178/1/2
f 182/1/2 176/1/2 181/1/2
f 183/7/2 180/7/2 179/7/2
f 184/7/2 180/7/2 183/7/2
f 185/7/2 182/7/2 181/7/2
f 186/7/2 182/7/2 185/7/2
f 187/1/2 184/1/2 183/1/2
f 187/1/2 185/1/2 184/1/2
f 187/1/2 186/1/2 185/1/2
f 188/1/2 186/1/2 187/1/2
f 189/6/2 188/6/2 187/6/2
f 190/6/2 188/6/2 189/6/2
f 191/6/2 188/6/2 190/6/2
f 192/6/2 188/6/2 191/6/2
f 193/7/2 190/7/2 189/7/2
f 194/7/2 192/7/2 191/7/2
f 196/7/2 193/7/2 189/7/2
f 196/7/2 194/7/2 193/7/2
f 197/7/2 192/7/2 194/7/2
f 197/7/2 194/7/2 196/7/2
f 199/4/2 196/4/2 195/4/2
f 200/4/2 196/4/2 199/4/2
f 201/4/2 198/4/2 197/4/2
f 202/4/2 198/4/2 201/4/2
f 203/5/2 201/5/2 200/5/2
f 204/5/2 201/5/2 203/5/2
f 205/4/2 204/4/2 203/4/2
f 206/4/2 204/4/2 205/4/2
f 209/6/2 208/6/2 207/6/2
f 210/6/2 208/6/2 209/6/2
f 213/4/2 212/4/2 211/4/2
f 214/4/2 212/4/2 213/4/2
f 217/6/2 216/6/2 215/6/2
f 218/6/2 216/6/2 217/6/2
f 219/1/2 218/1/2 217/1/2
f 220/1/2 218/1/2 219/1/2
f 221/7/3 222/7/3 223/7/3
f 223/7/3 222/7/3 224/7/3
f 225/3/3 226/3/3 229/3/3
f 229/3/3 226/3/3 230/3/3
f 227/3/3 228/3/3 231/3/3
f 231/3/3 228/3/3 232/3/3
f 233/3/3 234/3/3 237/3/3
f 237/3/3 234/3/3 238/3/3
f 235/3/3 236/3/3 239/3/3
f 239/3/3 236/3/3 240/3/3
f 241/4/3 242/4/3 243/4/3
f 243/4/3 242/4/3 244/4/3
f 245/4/3 246/4/3 255/4/3
f 255/4/3 246/4/3 256/4/3
f 253/6/3 254/6/3 259/6/3
f 254/7/3 255/7/3 259/7/3
f 259/7/3 255/7/3 260/7/3
f 252/1/3 253/1/3 261/1/3
f 253/6/3 259/6/3 261/6/3
f 259/6/3 260/6/3 261/6/3
f 261/6/3 260/6/3 262/6/3
f 262/6/3 260/6/3 263/6/3
f 249/1/3 250/1/3 264/1/3
f 250/1/3 251/1/3 264/1/3
f 251/7/3 252/7/3 265/7/3
f 264/1/3 251/1/3 265/1/3
f 252/1/3 261/1/3 266/1/3
f 265/7/3 252/7/3 266/7/3
f 261/7/3 262/7/3 267/7/3
f 266/1/3 261/1/3 267/1/3
f 267/7/3 262/7/3 268/7/3
f 262/2/3 263/2/3 269/2/3
f 268/7/3 262/7/3 269/7/3
f 263/6/3 260/6/3 270/6/3
f 269/2/3 263/2/3 270/2/3
f 267/6/3 268/6/3 271/6/3
f 249/1/3 264/1/3 271/1/3
f 264/6/3 265/6/3 271/6/3
f 266/6/3 267/6/3 271/6/3
f 265/6/3 266/6/3 271/6/3
f 271/6/3 268/6/3 272/6/3
f 272/6/3 268/6/3 273/6/3
f 273/6/3 268/6/3 274/6/3
f 268/7/3 269/7/3 275/7/3
f 274/6/3 268/6/3 275/6/3
f 269/6/3 270/6/3 276/6/3
f 275/7/3 269/7/3 276/7/3
f 270/6/3 260/6/3 277/6/3
f 276/6/3 270/6/3 277/6/3
f 273/1/3 274/1/3 278/1/3
f 275/7/3 276/7/3 278/7/3
f 274/7/3 275/7/3 278/7/3
f 276/2/3 277/2/3 279/2/3
f 278/7/3 276/7/3 279/7/3
f 277/6/3 260/6/3 280/6/3
f 279/2/3 277/2/3 280/2/3
f 278/6/3 279/6/3 281/6/3
f 279/6/3 280/6/3 281/6/3
f 280/6/3 260/6/3 282/6/3
f 281/6/3 280/6/3 282/6/3
f 247/1/3 248/1/3 283/1/3
f 248/7/3 249/7/3 284/7/3
f 283/1/3 248/1/3 284/1/3
f 249/1/3 271/1/3 285/1/3
f 284/7/3 249/7/3 285/7/3
f 271/1/3 272/1/3 285/1/3
f 272/7/3 273/7/3 286/7/3
f 285/1/3 272/1/3 286/1/3
f 273/1/3 278/1/3 287/1/3
f 286/7/3 273/7/3 287/7/3
f 278/6/3 281/6/3 288/6/3
f 287/1/3 278/1/3 288/1/3
f 281/7/3 282/7/3 289/7/3
f 288/6/3 281/6/3 289/6/3
f 289/7/3 282/7/3 290/7/3
f 256/5/3 257/5/3 291/5/3
f 257/4/3 258/4/3 292/4/3
f 291/5/3 257/5/3 292/5/3
f 292/4/3 258/4/3 293/4/3
f 290/4/3 291/4/3 294/4/3
f 294/4/3 291/4/3 295/4/3
f 296/4/3 297/4/3 298/4/3
f 298/4/3 297/4/3 299/4/3
f 300/6/3 301/6/3 303/6/3
f 303/6/3 301/6/3 304/6/3
f 300/6/3 303/6/3 305/6/3
f 305/6/3 303/6/3 306/6/3
f 304/6/3 301/6/3 307/6/3
f 301/1/3 302/1/3 308/1/3
f 307/6/3 301/6/3 308/6/3
f 308/1/3 302/1/3 309/1/3
f 309/1/3 302/1/3 310/1/3
f 311/6/3 312/6/3 316/6/3
f 312/6/3 313/6/3 316/6/3
f 314/1/3 315/1/3 317/1/3
f 316/6/3 313/6/3 317/6/3
f 313/1/3 314/1/3 317/1/3
f 317/1/3 315/1/3 318/1/3
f 319/6/3 320/6/3 321/6/3
f 321/6/3 320/6/3 322/6/3
f 323/7/3 324/7/3 325/7/3
f 325/7/3 324/7/3 326/7/3
f 327/7/3 328/7/3 329/7/3
f 329/7/3 328/7/3 330/7/3
f 331/6/3 332/6/3 333/6/3
f 333/6/3 332/6/3 334/6/3
f 335/1/3 336/1/3 346/1/3
f 336/7/3 337/7/3 347/7/3
f 346/1/3 336/1/3 347/1/3
f 337/1/3 338/1/3 348/1/3
f 347/7/3 337/7/3 348/7/3
f 338/7/3 339/7/3 349/7/3
f 348/1/3 338/1/3 349/1/3
f 339/1/3 340/1/3 350/1/3
f 349/7/3 339/7/3 350/7/3
f 340/6/3 341/6/3 351/6/3
f 350/1/3 340/1/3 351/1/3
f 341/7/3 342/7/3 352/7/3
f 351/6/3 341/6/3 352/6/3
f 342/4/3 343/4/3 353/4/3
f 352/7/3 342/7/3 353/7/3
f 343/5/3 344/5/3 354/5/3
f 353/4/3 343/4/3 354/4/3
f 344/4/3 345/4/3 355/4/3
f 354/5/3 344/5/3 355/5/3
f 355/4/3 345/4/3 356/4/3
f 361/3/4 358/3/4 357/3/4
f 362/3/4 358/3/4 361/3/4
f 363/3/4 360/3/4 359/3/4
f 364/3/4 360/3/4 363/3/4
f 376/1/4 370/1/4 369/1/4
f 376/6/4 371/6/4 370/6/4
f 376/6/4 372/6/4 371/6/4
f 377/6/4 372/6/4 376/6/4
f 378/6/4 372/6/4 377/6/4
f 379/1/4 368/1/4 367/1/4
f 380/7/4 369/7/4 368/7/4
f 380/1/4 368/1/4 379/1/4
f 381/1/4 376/1/4 369/1/4
f 381/7/4 369/7/4 380/7/4
f 382/7/4 377/7/4 376/7/4
f 382/1/4 376/1/4 381/1/4
f 383/7/4 377/7/4 382/7/4
f 384/2/4 378/2/4 377/2/4
f 384/7/4 377/7/4 383/7/4
f 385/6/4 372/6/4 378/6/4
f 385/2/4 378/2/4 384/2/4
f 386/1/4 379/1/4 367/1/4
f 386/6/4 380/6/4 379/6/4
f 386/6/4 381/6/4 380/6/4
f 386/6/4 382/6/4 381/6/4
f 386/6/4 383/6/4 382/6/4
f 387/6/4 383/6/4 386/6/4
f 388/6/4 383/6/4 387/6/4
f 389/6/4 383/6/4 388/6/4
f 390/7/4 384/7/4 383/7/4
f 390/6/4 383/6/4 389/6/4
f 391/6/4 385/6/4 384/6/4
f 391/7/4 384/7/4 390/7/4
f 392/6/4 372/6/4 385/6/4
f 392/6/4 385/6/4 391/6/4
f 393/1/4 389/1/4 388/1/4
f 393/7/4 391/7/4 390/7/4
f 393/7/4 390/7/4 389/7/4
f 394/2/4 392/2/4 391/2/4
f 394/7/4 391/7/4 393/7/4
f 395/6/4 372/6/4 392/6/4
f 395/2/4 392/2/4 394/2/4
f 396/1/4 366/1/4 365/1/4
f 397/7/4 367/7/4 366/7/4
f 397/1/4 366/1/4 396/1/4
f 398/1/4 386/1/4 367/1/4
f 398/7/4 367/7/4 397/7/4
f 398/1/4 387/1/4 386/1/4
f 399/7/4 388/7/4 387/7/4
f 399/1/4 387/1/4 398/1/4
f 400/1/4 393/1/4 388/1/4
f 400/7/4 388/7/4 399/7/4
f 401/6/4 394/6/4 393/6/4
f 401/1/4 393/1/4 400/1/4
f 401/6/4 395/6/4 394/6/4
f 402/6/4 395/6/4 401/6/4
f 403/6/4 372/6/4 395/6/4
f 403/6/4 395/6/4 402/6/4
f 403/4/4 373/4/4 372/4/4
f 404/5/4 374/5/4 373/5/4
f 404/4/4 373/4/4 403/4/4
f 405/4/4 375/4/4 374/4/4
f 405/5/4 374/5/4 404/5/4
f 406/4/4 375/4/4 405/4/4
f 412/6/4 408/6/4 407/6/4
f 413/6/4 408/6/4 412/6/4
f 414/1/4 409/1/4 408/1/4
f 414/6/4 408/6/4 413/6/4
f 415/1/4 409/1/4 414/1/4
f 416/1/4 409/1/4 415/1/4
f 417/6/4 411/6/4 410/6/4
f 418/6/4 411/6/4 417/6/4
f 421/7/4 420/7/4 419/7/4
f 422/7/4 420/7/4 421/7/4
f 425/7/4 424/7/4 423/7/4
f 426/7/4 424/7/4 425/7/4
f 434/6/4 433/6/4 432/6/4
f 435/6/4 433/6/4 434/6/4
f 436/6/4 428/6/4 427/6/4
f 436/6/4 429/6/4 428/6/4
f 437/1/4 430/1/4 429/1/4
f 437/6/4 429/6/4 436/6/4
f 437/1/4 431/1/4 430/1/4
f 438/1/4 431/1/4 437/1/4
f 441/4/4 440/4/4 439/4/4
f 442/4/4 440/4/4 441/4/4
f 452/4/4 444/4/4 443/4/4
f 453/4/4 444/4/4 452/4/4
f 456/1/4 446/1/4 445/1/4
f 457/7/4 447/7/4 446/7/4
f 457/1/4 446/1/4 456/1/4
f 458/1/4 448/1/4 447/1/4
f 458/7/4 447/7/4 457/7/4
f 459/7/4 449/7/4 448/7/4
f 459/1/4 448/1/4 458/1/4
f 460/1/4 450/1/4 449/1/4
f 460/7/4 449/7/4 459/7/4
f 461/6/4 451/6/4 450/6/4
f 461/1/4 450/1/4 460/1/4
f 462/7/4 452/7/4 451/7/4
f 462/6/4 451/6/4 461/6/4
f 463/7/4 452/7/4 462/7/4
f 464/5/4 454/5/4 453/5/4
f 465/4/4 455/4/4 454/4/4
f 465/5/4 454/5/4 464/5/4
f 466/4/4 455/4/4 465/4/4
f 467/4/4 464/4/4 463/4/4
f 468/4/4 464/4/4 467/4/4
f 471/4/4 470/4/4 469/4/4
f 472/4/4 470/4/4 471/4/4
f 473/7/5 474/7/5 477/7/5
f 477/7/5 474/7/5 478/7/5
f 475/7/5 476/7/5 479/7/5
f 479/7/5 476/7/5 480/7/5
f 481/1/5 482/1/5 483/1/5
f 483/1/5 482/1/5 484/1/5
f 481/1/5 483/1/5 485/1/5
f 483/7/5 484/7/5 485/7/5
f 485/7/5 484/7/5 486/7/5
f 486/7/5 484/7/5 487/7/5
f 484/1/5 482/1/5 488/1/5
f 487/7/5 484/7/5 488/7/5
f 481/1/5 485/1/5 489/1/5
f 486/7/5 487/7/5 490/7/5
f 490/7/5 487/7/5 491/7/5
f 488/1/5 482/1/5 492/1/5
f 481/1/5 489/1/5 493/1/5
f 491/7/5 492/7/5 493/7/5
f 490/7/5 491/7/5 493/7/5
f 489/7/5 490/7/5 493/7/5
f 492/1/5 482/1/5 494/1/5
f 493/7/5 492/7/5 494/7/5
f 481/1/5 493/1/5 495/1/5
f 493/1/5 494/1/5 495/1/5
f 494/1/5 482/1/5 496/1/5
f 495/1/5 494/1/5 496/1/5
f 497/3/5 498/3/5 499/3/5
f 499/3/5 498/3/5 500/3/5
f 501/3/5 502/3/5 503/3/5
f 503/3/5 502/3/5 504/3/5
f 505/6/5 506/6/5 509/6/5
f 509/6/5 506/6/5 510/6/5
f 507/6/5 508/6/5 511/6/5
f 511/6/5 508/6/5 512/6/5
f 513/7/5 514/7/5 515/7/5
f 515/7/5 514/7/5 516/7/5
f 517/7/5 518/7/5 519/7/5
f 517/7/5 519/7/5 520/7/5
f 520/7/5 519/7/5 521/7/5
f 522/6/5 523/6/5 526/6/5
f 526/6/5 523/6/5 527/6/5
f 524/6/5 525/6/5 528/6/5
f 528/6/5 525/6/5 529/6/5
f 530/4/5 531/4/5 533/4/5
f 533/4/5 531/4/5 534/4/5
f 534/4/5 531/4/5 535/4/5
f 535/4/5 531/4/5 536/4/5
f 532/4/5 533/4/5 538/4/5
f 538/4/5 533/4/5 539/4/5
f 536/4/5 537/4/5 540/4/5
f 540/4/5 537/4/5 541/4/5
f 539/4/5 540/4/5 542/4/5
f 542/4/5 540/4/5 543/4/5
f 544/4/5 545/4/5 546/4/5
f 546/4/5 545/4/5 547/4/5
f 550/7/6 549/7/6 548/7/6
f 551/7/6 549/7/6 550/7/6
f 552/1/6 551/1/6 550/1/6
f 553/7/6 549/7/6 551/7/6
f 553/1/6 551/1/6 552/1/6
f 554/7/6 553/7/6 552/7/6
f 555/7/6 549/7/6 553/7/6
f 555/7/6 553/7/6 554/7/6
f 558/7/6 557/7/6 556/7/6
f 559/7/6 557/7/6 558/7/6
f 562/7/6 561/7/6 560/7/6
f 563/7/6 562/7/6 560/7/6
f 564/7/6 562/7/6 563/7/6
f 567/3/6 566/3/6 565/3/6
f 568/3/6 566/3/6 567/3/6
f 571/3/6 570/3/6 569/3/6
f 572/3/6 570/3/6 571/3/6
f 577/1/6 574/1/6 573/1/6
f 578/1/6 574/1/6 577/1/6
f 579/1/6 576/1/6 575/1/6
f 580/1/6 576/1/6 579/1/6
f 585/6/6 582/6/6 581/6/6
f 586/6/6 582/6/6 585/6/6
f 587/6/6 584/6/6 583/6/6
f 588/6/6 584/6/6 587/6/6
f 592/4/6 590/4/6 589/4/6
f 593/4/6 590/4/6 592/4/6
f 595/4/6 592/4/6 591/4/6
f 596/4/6 592/4/6 595/4/6
f 597/4/6 594/4/6 593/4/6
f 598/4/6 594/4/6 597/4/6
f 599/4/6 597/4/6 596/4/6
f 600/4/6 597/4/6 599/4/6
f 603/4/6 602/4/6 601/4/6
f 604/4/6 602/4/6 603/4/6
f 605/4/6 603/4/6 601/4/6
f 606/4/6 602/4/6 604/4/6
f 607/4/6 605/4/6 601/4/6
f 607/4/6 606/4/6 605/4/6
f 608/4/6 602/4/6 606/4/6
f 608/4/6 606/4/6 607/4/6
f 611/4/6 610/4/6 609/4/6
f 612/4/6 610/4/6 611/4/6
