# MagicaVoxel @ Ephtracy

# group
o 

# material
mtllib humanSpring.mtl
usemtl palette

# normals
vn -1 0 0
vn 1 0 0
vn 0 0 1
vn 0 0 -1
vn 0 -1 0
vn 0 1 0

# texcoords
vt 0.970703 0.5
vt 0.974609 0.5
vt 0.978516 0.5
vt 0.986328 0.5
vt 0.990234 0.5
vt 0.994141 0.5

# verts
v -0.6 0.7 0.2
v -0.6 0.7 -0.1
v -0.6 1.1 0.2
v -0.6 1.1 -0.1
v -0.6 1.4 0.2
v -0.6 1.4 -0.1
v -0.5 0.5 0.8
v -0.5 0.5 0.7
v -0.5 0.6 0.9
v -0.5 0.6 0.8
v -0.5 0.8 1
v -0.5 0.8 0.9
v -0.5 0.8 0.7
v -0.5 0.8 0.2
v -0.5 1 1
v -0.5 1 0.9
v -0.5 1 0.7
v -0.5 1 0.2
v -0.5 1.2 0.9
v -0.5 1.2 0.8
v -0.5 1.3 0.8
v -0.5 1.3 0.7
v -0.5 1.6 0.1
v -0.5 1.6 -0.1
v -0.5 1.9 0.1
v -0.5 1.9 -0.1
v -0.4 0.4 0.4
v -0.4 0.4 -0.4
v -0.4 0.7 0.4
v -0.4 0.7 0.2
v -0.4 0.7 -0.1
v -0.4 0.7 -0.4
v -0.4 0.8 0.4
v -0.4 0.8 0.2
v -0.4 0.8 -0.1
v -0.4 0.8 -0.4
v -0.4 1 0.4
v -0.4 1 0.2
v -0.4 1.1 0.2
v -0.4 1.1 -0.1
v -0.4 1.3 0.4
v -0.4 1.3 0.2
v -0.4 1.3 -0.1
v -0.4 1.3 -0.4
v -0.4 1.4 0.4
v -0.4 1.4 0.2
v -0.4 1.4 -0.1
v -0.4 1.4 -0.4
v -0.4 1.5 0.4
v -0.4 1.5 -0.4
v -0.4 1.6 0.4
v -0.4 1.6 0.1
v -0.4 1.6 -0.1
v -0.4 1.6 -0.4
v -0.4 1.9 0.1
v -0.4 1.9 -0.1
v -0.4 2 0.6
v -0.4 2 0.4
v -0.4 2 -0.4
v -0.4 2.1 0.6
v -0.4 2.1 0.4
v -0.4 2.1 -0.4
v -0.4 2.2 0.4
v -0.4 2.2 -0.4
v -0.4 2.4 0.4
v -0.4 2.4 -0.4
v -0.3 0 0.1
v -0.3 0 -0.1
v -0.3 0.4 0.1
v -0.3 0.4 -0.1
v 0.1 0 0.1
v 0.1 0 -0.1
v 0.1 0.4 0.1
v 0.1 0.4 -0.1
v 0.3 0.5 0.3
v 0.3 0.5 -0.3
v 0.3 0.7 0.3
v 0.3 0.7 -0.3
v 0.3 0.8 0.3
v 0.3 0.8 -0.3
v 0.3 1.3 0.3
v 0.3 1.3 -0.3
v 0.3 1.4 0.3
v 0.3 1.4 -0.3
v 0.3 1.5 0.3
v 0.3 1.5 -0.3
v 0.3 1.6 0.3
v 0.3 1.6 0.1
v 0.3 1.6 -0.1
v 0.3 1.6 -0.3
v 0.3 1.9 0.1
v 0.3 1.9 -0.1
v 0.3 2 0.3
v 0.3 2 -0.3
v 0.3 2.1 0.3
v 0.3 2.1 -0.3
v 0.3 2.2 0.3
v 0.3 2.2 -0.3
v 0.3 2.3 0.3
v 0.3 2.3 -0.3
v -0.4 0.5 0.8
v -0.4 0.5 0.7
v -0.4 0.6 0.9
v -0.4 0.6 0.8
v -0.4 0.8 1
v -0.4 0.8 0.9
v -0.4 0.8 0.7
v -0.4 0.8 0.4
v -0.4 1 1
v -0.4 1 0.9
v -0.4 1 0.7
v -0.4 1 0.4
v -0.4 1.2 0.9
v -0.4 1.2 0.8
v -0.4 1.3 0.8
v -0.4 1.3 0.7
v -0.3 0.5 0.3
v -0.3 0.5 0
v -0.3 0.5 -0.1
v -0.3 0.5 -0.3
v -0.3 0.7 0.3
v -0.3 0.7 -0.3
v -0.3 0.8 0.3
v -0.3 0.8 -0.3
v -0.3 1.3 0.3
v -0.3 1.3 -0.3
v -0.3 1.4 0.3
v -0.3 1.4 -0.3
v -0.3 1.5 0.3
v -0.3 1.5 -0.3
v -0.3 1.6 0.3
v -0.3 1.6 0.1
v -0.3 1.6 -0.1
v -0.3 1.6 -0.3
v -0.3 1.9 0.1
v -0.3 1.9 -0.1
v -0.3 2 0.3
v -0.3 2 -0.3
v -0.3 2.1 0.3
v -0.3 2.1 -0.3
v -0.3 2.2 0.3
v -0.3 2.2 -0.3
v -0.3 2.3 0.3
v -0.3 2.3 -0.3
v -0.1 0 0.1
v -0.1 0 -0.1
v -0.1 0.4 0.1
v -0.1 0.4 -0.1
v 0.3 0 0.1
v 0.3 0 -0.1
v 0.3 0.4 0.1
v 0.3 0.4 -0.1
v 0.4 0.4 0.4
v 0.4 0.4 -0.4
v 0.4 0.7 0.4
v 0.4 0.7 0.2
v 0.4 0.7 -0.1
v 0.4 0.7 -0.4
v 0.4 0.8 0.4
v 0.4 0.8 0.2
v 0.4 0.8 -0.1
v 0.4 0.8 -0.4
v 0.4 1.2 0.2
v 0.4 1.2 -0.1
v 0.4 1.3 0.4
v 0.4 1.3 0.2
v 0.4 1.3 -0.1
v 0.4 1.3 -0.4
v 0.4 1.4 0.4
v 0.4 1.4 0.2
v 0.4 1.4 -0.1
v 0.4 1.4 -0.4
v 0.4 1.5 0.4
v 0.4 1.5 -0.4
v 0.4 1.6 0.4
v 0.4 1.6 0.1
v 0.4 1.6 -0.1
v 0.4 1.6 -0.4
v 0.4 1.9 0.1
v 0.4 1.9 -0.1
v 0.4 2 0.6
v 0.4 2 0.4
v 0.4 2 -0.4
v 0.4 2.1 0.6
v 0.4 2.1 0.4
v 0.4 2.1 -0.4
v 0.4 2.2 0.4
v 0.4 2.2 -0.4
v 0.4 2.4 0.4
v 0.4 2.4 -0.4
v 0.5 1.6 0.1
v 0.5 1.6 -0.1
v 0.5 1.9 0.1
v 0.5 1.9 -0.1
v 0.6 0.7 0.2
v 0.6 0.7 -0.1
v 0.6 1.2 0.2
v 0.6 1.2 -0.1
v 0.6 1.4 0.2
v 0.6 1.4 -0.1
v -0.5 0.8 1
v -0.5 1 1
v -0.4 0.8 1
v -0.4 1 1
v -0.5 0.6 0.9
v -0.5 0.8 0.9
v -0.5 1 0.9
v -0.5 1.2 0.9
v -0.4 0.6 0.9
v -0.4 0.8 0.9
v -0.4 1 0.9
v -0.4 1.2 0.9
v -0.5 0.5 0.8
v -0.5 0.6 0.8
v -0.5 1.2 0.8
v -0.5 1.3 0.8
v -0.4 0.5 0.8
v -0.4 0.6 0.8
v -0.4 1.2 0.8
v -0.4 1.3 0.8
v -0.4 2 0.6
v -0.4 2.1 0.6
v 0.4 2 0.6
v 0.4 2.1 0.6
v -0.4 0.4 0.4
v -0.4 0.7 0.4
v -0.4 0.8 0.4
v -0.4 1 0.4
v -0.4 1.3 0.4
v -0.4 1.4 0.4
v -0.4 1.5 0.4
v -0.4 1.6 0.4
v -0.4 2 0.4
v -0.4 2.1 0.4
v -0.4 2.2 0.4
v -0.4 2.4 0.4
v -0.3 1.6 0.4
v -0.3 2 0.4
v -0.2 1.5 0.4
v -0.2 1.7 0.4
v -0.2 1.9 0.4
v -0.1 1.2 0.4
v -0.1 1.3 0.4
v -0.1 1.4 0.4
v -0.1 1.5 0.4
v -0.1 1.6 0.4
v -0.1 1.7 0.4
v -0.1 1.9 0.4
v 0.1 1.2 0.4
v 0.1 1.3 0.4
v 0.1 1.4 0.4
v 0.1 1.5 0.4
v 0.1 1.6 0.4
v 0.1 1.7 0.4
v 0.1 1.9 0.4
v 0.2 1.5 0.4
v 0.2 1.7 0.4
v 0.2 1.9 0.4
v 0.3 1.6 0.4
v 0.3 2 0.4
v 0.4 0.4 0.4
v 0.4 0.7 0.4
v 0.4 0.8 0.4
v 0.4 1.3 0.4
v 0.4 1.4 0.4
v 0.4 1.5 0.4
v 0.4 1.6 0.4
v 0.4 2 0.4
v 0.4 2.1 0.4
v 0.4 2.2 0.4
v 0.4 2.4 0.4
v -0.6 0.7 0.2
v -0.6 1.1 0.2
v -0.6 1.4 0.2
v -0.5 0.8 0.2
v -0.5 1 0.2
v -0.4 0.7 0.2
v -0.4 0.8 0.2
v -0.4 1 0.2
v -0.4 1.1 0.2
v -0.4 1.3 0.2
v -0.4 1.4 0.2
v 0.4 0.7 0.2
v 0.4 0.8 0.2
v 0.4 1.2 0.2
v 0.4 1.3 0.2
v 0.4 1.4 0.2
v 0.6 0.7 0.2
v 0.6 1.2 0.2
v 0.6 1.4 0.2
v -0.5 1.6 0.1
v -0.5 1.9 0.1
v -0.4 1.6 0.1
v -0.4 1.9 0.1
v -0.3 0 0.1
v -0.3 0.4 0.1
v -0.1 0 0.1
v -0.1 0.4 0.1
v 0.1 0 0.1
v 0.1 0.4 0.1
v 0.3 0 0.1
v 0.3 0.4 0.1
v 0.4 1.6 0.1
v 0.4 1.9 0.1
v 0.5 1.6 0.1
v 0.5 1.9 0.1
v -0.3 0.5 -0.3
v -0.3 0.7 -0.3
v -0.3 0.8 -0.3
v -0.3 1.3 -0.3
v -0.3 1.4 -0.3
v -0.3 1.5 -0.3
v -0.3 1.6 -0.3
v -0.3 2 -0.3
v -0.3 2.1 -0.3
v -0.3 2.2 -0.3
v -0.3 2.3 -0.3
v 0.3 0.5 -0.3
v 0.3 0.7 -0.3
v 0.3 0.8 -0.3
v 0.3 1.3 -0.3
v 0.3 1.4 -0.3
v 0.3 1.5 -0.3
v 0.3 1.6 -0.3
v 0.3 2 -0.3
v 0.3 2.1 -0.3
v 0.3 2.2 -0.3
v 0.3 2.3 -0.3
v -0.5 0.5 0.7
v -0.5 0.8 0.7
v -0.5 1 0.7
v -0.5 1.3 0.7
v -0.4 0.5 0.7
v -0.4 0.8 0.7
v -0.4 1 0.7
v -0.4 1.3 0.7
v -0.3 0.5 0.3
v -0.3 0.7 0.3
v -0.3 0.8 0.3
v -0.3 1.3 0.3
v -0.3 1.4 0.3
v -0.3 1.5 0.3
v -0.3 1.6 0.3
v -0.3 2 0.3
v -0.3 2.1 0.3
v -0.3 2.2 0.3
v -0.3 2.3 0.3
v -0.2 1.5 0.3
v -0.2 1.7 0.3
v -0.2 1.9 0.3
v -0.1 1.2 0.3
v -0.1 1.3 0.3
v -0.1 1.4 0.3
v -0.1 1.5 0.3
v -0.1 1.6 0.3
v -0.1 1.7 0.3
v -0.1 1.9 0.3
v 0.1 1.2 0.3
v 0.1 1.3 0.3
v 0.1 1.4 0.3
v 0.1 1.5 0.3
v 0.1 1.6 0.3
v 0.1 1.7 0.3
v 0.1 1.9 0.3
v 0.2 1.5 0.3
v 0.2 1.7 0.3
v 0.2 1.9 0.3
v 0.3 0.5 0.3
v 0.3 0.7 0.3
v 0.3 0.8 0.3
v 0.3 1.3 0.3
v 0.3 1.4 0.3
v 0.3 1.5 0.3
v 0.3 1.6 0.3
v 0.3 2 0.3
v 0.3 2.1 0.3
v 0.3 2.2 0.3
v 0.3 2.3 0.3
v -0.6 0.7 -0.1
v -0.6 1.1 -0.1
v -0.6 1.4 -0.1
v -0.5 1.6 -0.1
v -0.5 1.9 -0.1
v -0.4 0.7 -0.1
v -0.4 0.8 -0.1
v -0.4 1.1 -0.1
v -0.4 1.3 -0.1
v -0.4 1.4 -0.1
v -0.4 1.6 -0.1
v -0.4 1.9 -0.1
v -0.3 0 -0.1
v -0.3 0.4 -0.1
v -0.1 0 -0.1
v -0.1 0.4 -0.1
v 0.1 0 -0.1
v 0.1 0.4 -0.1
v 0.3 0 -0.1
v 0.3 0.4 -0.1
v 0.4 0.7 -0.1
v 0.4 0.8 -0.1
v 0.4 1.2 -0.1
v 0.4 1.3 -0.1
v 0.4 1.4 -0.1
v 0.4 1.6 -0.1
v 0.4 1.9 -0.1
v 0.5 1.6 -0.1
v 0.5 1.9 -0.1
v 0.6 0.7 -0.1
v 0.6 1.2 -0.1
v 0.6 1.4 -0.1
v -0.4 0.4 -0.4
v -0.4 0.7 -0.4
v -0.4 0.8 -0.4
v -0.4 1.3 -0.4
v -0.4 1.4 -0.4
v -0.4 1.5 -0.4
v -0.4 1.6 -0.4
v -0.4 2 -0.4
v -0.4 2.1 -0.4
v -0.4 2.2 -0.4
v -0.4 2.4 -0.4
v 0.4 0.4 -0.4
v 0.4 0.7 -0.4
v 0.4 0.8 -0.4
v 0.4 1.3 -0.4
v 0.4 1.4 -0.4
v 0.4 1.5 -0.4
v 0.4 1.6 -0.4
v 0.4 2 -0.4
v 0.4 2.1 -0.4
v 0.4 2.2 -0.4
v 0.4 2.4 -0.4
v -0.3 0 0.1
v -0.1 0 0.1
v 0.1 0 0.1
v 0.3 0 0.1
v -0.3 0 -0.1
v -0.1 0 -0.1
v 0.1 0 -0.1
v 0.3 0 -0.1
v -0.4 0.4 0.4
v 0.4 0.4 0.4
v -0.3 0.4 0.3
v 0.3 0.4 0.3
v -0.3 0.4 0.1
v -0.1 0.4 0.1
v 0.1 0.4 0.1
v 0.3 0.4 0.1
v -0.3 0.4 -0.1
v -0.1 0.4 -0.1
v 0.1 0.4 -0.1
v 0.3 0.4 -0.1
v -0.3 0.4 -0.3
v 0.3 0.4 -0.3
v -0.4 0.4 -0.4
v 0.4 0.4 -0.4
v -0.5 0.5 0.8
v -0.4 0.5 0.8
v -0.5 0.5 0.7
v -0.4 0.5 0.7
v -0.5 0.6 0.9
v -0.4 0.6 0.9
v -0.5 0.6 0.8
v -0.4 0.6 0.8
v -0.6 0.7 0.2
v -0.4 0.7 0.2
v 0.4 0.7 0.2
v 0.6 0.7 0.2
v -0.6 0.7 -0.1
v -0.4 0.7 -0.1
v 0.4 0.7 -0.1
v 0.6 0.7 -0.1
v -0.5 0.8 1
v -0.4 0.8 1
v -0.5 0.8 0.9
v -0.4 0.8 0.9
v -0.5 0.8 0.7
v -0.4 0.8 0.7
v -0.4 0.8 0.4
v -0.5 0.8 0.2
v -0.4 0.8 0.2
v -0.5 1.6 0.1
v -0.4 1.6 0.1
v 0.4 1.6 0.1
v 0.5 1.6 0.1
v -0.5 1.6 -0.1
v -0.4 1.6 -0.1
v 0.4 1.6 -0.1
v 0.5 1.6 -0.1
v -0.4 2 0.6
v 0.4 2 0.6
v -0.4 2 0.4
v -0.3 2 0.4
v 0.3 2 0.4
v 0.4 2 0.4
v -0.3 2.3 0.3
v 0.3 2.3 0.3
v -0.3 2.3 -0.3
v 0.3 2.3 -0.3
v -0.3 0.5 0.3
v 0.3 0.5 0.3
v -0.3 0.5 0
v -0.2 0.5 0
v -0.3 0.5 -0.1
v -0.2 0.5 -0.1
v -0.3 0.5 -0.3
v 0.3 0.5 -0.3
v -0.5 1 1
v -0.4 1 1
v -0.5 1 0.9
v -0.4 1 0.9
v -0.5 1 0.7
v -0.4 1 0.7
v -0.4 1 0.4
v -0.5 1 0.2
v -0.4 1 0.2
v -0.5 1.2 0.9
v -0.4 1.2 0.9
v -0.5 1.2 0.8
v -0.4 1.2 0.8
v -0.5 1.3 0.8
v -0.4 1.3 0.8
v -0.5 1.3 0.7
v -0.4 1.3 0.7
v -0.6 1.4 0.2
v -0.4 1.4 0.2
v 0.4 1.4 0.2
v 0.6 1.4 0.2
v -0.6 1.4 -0.1
v -0.4 1.4 -0.1
v 0.4 1.4 -0.1
v 0.6 1.4 -0.1
v -0.5 1.9 0.1
v -0.4 1.9 0.1
v 0.4 1.9 0.1
v 0.5 1.9 0.1
v -0.5 1.9 -0.1
v -0.4 1.9 -0.1
v 0.4 1.9 -0.1
v 0.5 1.9 -0.1
v -0.4 2.1 0.6
v 0.4 2.1 0.6
v -0.4 2.1 0.4
v 0.4 2.1 0.4
v -0.4 2.4 0.4
v 0.4 2.4 0.4
v -0.4 2.4 -0.4
v 0.4 2.4 -0.4

# faces
f 3/5/1 2/5/1 1/5/1
f 4/5/1 2/5/1 3/5/1
f 5/1/1 4/1/1 3/1/1
f 6/1/1 4/1/1 5/1/1
f 10/3/1 8/3/1 7/3/1
f 12/3/1 10/3/1 9/3/1
f 13/3/1 8/3/1 10/3/1
f 13/3/1 10/3/1 12/3/1
f 15/6/1 12/6/1 11/6/1
f 16/3/1 13/3/1 12/3/1
f 16/6/1 12/6/1 15/6/1
f 17/6/1 14/6/1 13/6/1
f 17/3/1 13/3/1 16/3/1
f 18/6/1 14/6/1 17/6/1
f 19/3/1 17/3/1 16/3/1
f 20/3/1 17/3/1 19/3/1
f 21/3/1 17/3/1 20/3/1
f 22/3/1 17/3/1 21/3/1
f 25/5/1 24/5/1 23/5/1
f 26/5/1 24/5/1 25/5/1
f 29/1/1 28/1/1 27/1/1
f 30/1/1 28/1/1 29/1/1
f 31/1/1 28/1/1 30/1/1
f 32/1/1 28/1/1 31/1/1
f 33/6/1 30/6/1 29/6/1
f 34/6/1 30/6/1 33/6/1
f 35/6/1 32/6/1 31/6/1
f 36/6/1 32/6/1 35/6/1
f 39/1/1 38/1/1 37/1/1
f 40/1/1 36/1/1 35/1/1
f 41/1/1 39/1/1 37/1/1
f 42/1/1 39/1/1 41/1/1
f 43/1/1 36/1/1 40/1/1
f 44/1/1 36/1/1 43/1/1
f 45/6/1 42/6/1 41/6/1
f 46/6/1 42/6/1 45/6/1
f 47/6/1 44/6/1 43/6/1
f 48/6/1 44/6/1 47/6/1
f 49/1/1 46/1/1 45/1/1
f 49/1/1 47/1/1 46/1/1
f 49/1/1 48/1/1 47/1/1
f 50/1/1 48/1/1 49/1/1
f 51/5/1 50/5/1 49/5/1
f 52/5/1 50/5/1 51/5/1
f 53/5/1 50/5/1 52/5/1
f 54/5/1 50/5/1 53/5/1
f 55/6/1 52/6/1 51/6/1
f 56/6/1 54/6/1 53/6/1
f 58/6/1 55/6/1 51/6/1
f 58/6/1 56/6/1 55/6/1
f 59/6/1 54/6/1 56/6/1
f 59/6/1 56/6/1 58/6/1
f 60/1/1 58/1/1 57/1/1
f 60/1/1 59/1/1 58/1/1
f 61/1/1 59/1/1 60/1/1
f 62/1/1 59/1/1 61/1/1
f 63/4/1 62/4/1 61/4/1
f 64/4/1 62/4/1 63/4/1
f 65/1/1 64/1/1 63/1/1
f 66/1/1 64/1/1 65/1/1
f 69/6/1 68/6/1 67/6/1
f 70/6/1 68/6/1 69/6/1
f 73/6/1 72/6/1 71/6/1
f 74/6/1 72/6/1 73/6/1
f 77/1/1 76/1/1 75/1/1
f 78/1/1 76/1/1 77/1/1
f 79/6/1 78/6/1 77/6/1
f 80/6/1 78/6/1 79/6/1
f 81/1/1 80/1/1 79/1/1
f 82/1/1 80/1/1 81/1/1
f 83/6/1 82/6/1 81/6/1
f 84/6/1 82/6/1 83/6/1
f 85/1/1 84/1/1 83/1/1
f 86/1/1 84/1/1 85/1/1
f 87/5/1 86/5/1 85/5/1
f 88/5/1 86/5/1 87/5/1
f 89/5/1 86/5/1 88/5/1
f 90/5/1 86/5/1 89/5/1
f 91/6/1 88/6/1 87/6/1
f 91/5/1 89/5/1 88/5/1
f 92/6/1 90/6/1 89/6/1
f 92/5/1 89/5/1 91/5/1
f 93/6/1 91/6/1 87/6/1
f 93/6/1 92/6/1 91/6/1
f 94/6/1 90/6/1 92/6/1
f 94/6/1 92/6/1 93/6/1
f 95/1/1 94/1/1 93/1/1
f 96/1/1 94/1/1 95/1/1
f 97/4/1 96/4/1 95/4/1
f 98/4/1 96/4/1 97/4/1
f 99/1/1 98/1/1 97/1/1
f 100/1/1 98/1/1 99/1/1
f 101/3/2 102/3/2 104/3/2
f 103/3/2 104/3/2 106/3/2
f 104/3/2 102/3/2 107/3/2
f 106/3/2 104/3/2 107/3/2
f 105/6/2 106/6/2 109/6/2
f 106/3/2 107/3/2 110/3/2
f 109/6/2 106/6/2 110/6/2
f 107/6/2 108/6/2 111/6/2
f 110/3/2 107/3/2 111/3/2
f 111/6/2 108/6/2 112/6/2
f 110/3/2 111/3/2 113/3/2
f 113/3/2 111/3/2 114/3/2
f 114/3/2 111/3/2 115/3/2
f 115/3/2 111/3/2 116/3/2
f 117/1/2 118/1/2 121/1/2
f 119/1/2 120/1/2 121/1/2
f 118/1/2 119/1/2 121/1/2
f 121/1/2 120/1/2 122/1/2
f 121/6/2 122/6/2 123/6/2
f 123/6/2 122/6/2 124/6/2
f 123/1/2 124/1/2 125/1/2
f 125/1/2 124/1/2 126/1/2
f 125/6/2 126/6/2 127/6/2
f 127/6/2 126/6/2 128/6/2
f 127/1/2 128/1/2 129/1/2
f 129/1/2 128/1/2 130/1/2
f 129/5/2 130/5/2 131/5/2
f 131/5/2 130/5/2 132/5/2
f 132/5/2 130/5/2 133/5/2
f 133/5/2 130/5/2 134/5/2
f 131/6/2 132/6/2 135/6/2
f 132/5/2 133/5/2 135/5/2
f 133/6/2 134/6/2 136/6/2
f 135/5/2 133/5/2 136/5/2
f 131/6/2 135/6/2 137/6/2
f 135/6/2 136/6/2 137/6/2
f 136/6/2 134/6/2 138/6/2
f 137/6/2 136/6/2 138/6/2
f 137/1/2 138/1/2 139/1/2
f 139/1/2 138/1/2 140/1/2
f 139/4/2 140/4/2 141/4/2
f 141/4/2 140/4/2 142/4/2
f 141/1/2 142/1/2 143/1/2
f 143/1/2 142/1/2 144/1/2
f 145/6/2 146/6/2 147/6/2
f 147/6/2 146/6/2 148/6/2
f 149/6/2 150/6/2 151/6/2
f 151/6/2 150/6/2 152/6/2
f 153/1/2 154/1/2 155/1/2
f 155/1/2 154/1/2 156/1/2
f 156/1/2 154/1/2 157/1/2
f 157/1/2 154/1/2 158/1/2
f 155/6/2 156/6/2 159/6/2
f 159/6/2 156/6/2 160/6/2
f 157/6/2 158/6/2 161/6/2
f 161/6/2 158/6/2 162/6/2
f 159/1/2 160/1/2 163/1/2
f 161/1/2 162/1/2 164/1/2
f 159/1/2 163/1/2 165/1/2
f 165/1/2 163/1/2 166/1/2
f 164/1/2 162/1/2 167/1/2
f 167/1/2 162/1/2 168/1/2
f 165/6/2 166/6/2 169/6/2
f 169/6/2 166/6/2 170/6/2
f 167/6/2 168/6/2 171/6/2
f 171/6/2 168/6/2 172/6/2
f 169/1/2 170/1/2 173/1/2
f 170/1/2 171/1/2 173/1/2
f 171/1/2 172/1/2 173/1/2
f 173/1/2 172/1/2 174/1/2
f 173/5/2 174/5/2 175/5/2
f 175/5/2 174/5/2 176/5/2
f 176/5/2 174/5/2 177/5/2
f 177/5/2 174/5/2 178/5/2
f 175/6/2 176/6/2 179/6/2
f 177/6/2 178/6/2 180/6/2
f 175/6/2 179/6/2 182/6/2
f 179/6/2 180/6/2 182/6/2
f 180/6/2 178/6/2 183/6/2
f 182/6/2 180/6/2 183/6/2
f 181/1/2 182/1/2 184/1/2
f 182/1/2 183/1/2 184/1/2
f 184/1/2 183/1/2 185/1/2
f 185/1/2 183/1/2 186/1/2
f 185/4/2 186/4/2 187/4/2
f 187/4/2 186/4/2 188/4/2
f 187/1/2 188/1/2 189/1/2
f 189/1/2 188/1/2 190/1/2
f 191/5/2 192/5/2 193/5/2
f 193/5/2 192/5/2 194/5/2
f 195/5/2 196/5/2 197/5/2
f 197/5/2 196/5/2 198/5/2
f 197/1/2 198/1/2 199/1/2
f 199/1/2 198/1/2 200/1/2
f 203/6/3 202/6/3 201/6/3
f 204/6/3 202/6/3 203/6/3
f 209/3/3 206/3/3 205/3/3
f 210/3/3 206/3/3 209/3/3
f 211/3/3 208/3/3 207/3/3
f 212/3/3 208/3/3 211/3/3
f 217/3/3 214/3/3 213/3/3
f 218/3/3 214/3/3 217/3/3
f 219/3/3 216/3/3 215/3/3
f 220/3/3 216/3/3 219/3/3
f 223/1/3 222/1/3 221/1/3
f 224/1/3 222/1/3 223/1/3
f 237/5/3 232/5/3 231/5/3
f 237/6/3 233/6/3 232/6/3
f 238/6/3 233/6/3 237/6/3
f 239/1/3 231/1/3 230/1/3
f 239/5/3 237/5/3 231/5/3
f 239/5/3 238/5/3 237/5/3
f 240/5/3 238/5/3 239/5/3
f 241/5/3 238/5/3 240/5/3
f 242/1/3 228/1/3 227/1/3
f 242/1/3 229/1/3 228/1/3
f 243/6/3 230/6/3 229/6/3
f 243/1/3 229/1/3 242/1/3
f 244/1/3 239/1/3 230/1/3
f 244/6/3 230/6/3 243/6/3
f 245/6/3 240/6/3 239/6/3
f 245/1/3 239/1/3 244/1/3
f 246/6/3 240/6/3 245/6/3
f 247/2/3 241/2/3 240/2/3
f 247/6/3 240/6/3 246/6/3
f 248/5/3 238/5/3 241/5/3
f 248/2/3 241/2/3 247/2/3
f 249/5/3 246/5/3 245/5/3
f 249/1/3 242/1/3 227/1/3
f 249/5/3 243/5/3 242/5/3
f 249/5/3 245/5/3 244/5/3
f 249/5/3 244/5/3 243/5/3
f 250/5/3 246/5/3 249/5/3
f 251/5/3 246/5/3 250/5/3
f 252/5/3 246/5/3 251/5/3
f 253/6/3 247/6/3 246/6/3
f 253/5/3 246/5/3 252/5/3
f 254/5/3 248/5/3 247/5/3
f 254/6/3 247/6/3 253/6/3
f 255/5/3 238/5/3 248/5/3
f 255/5/3 248/5/3 254/5/3
f 256/1/3 252/1/3 251/1/3
f 256/6/3 254/6/3 253/6/3
f 256/6/3 253/6/3 252/6/3
f 257/2/3 255/2/3 254/2/3
f 257/6/3 254/6/3 256/6/3
f 258/5/3 238/5/3 255/5/3
f 258/2/3 255/2/3 257/2/3
f 259/5/3 257/5/3 256/5/3
f 259/5/3 258/5/3 257/5/3
f 260/5/3 238/5/3 258/5/3
f 260/5/3 258/5/3 259/5/3
f 261/1/3 226/1/3 225/1/3
f 262/6/3 227/6/3 226/6/3
f 262/1/3 226/1/3 261/1/3
f 263/1/3 249/1/3 227/1/3
f 263/6/3 227/6/3 262/6/3
f 263/1/3 250/1/3 249/1/3
f 264/6/3 251/6/3 250/6/3
f 264/1/3 250/1/3 263/1/3
f 265/1/3 256/1/3 251/1/3
f 265/6/3 251/6/3 264/6/3
f 266/5/3 259/5/3 256/5/3
f 266/1/3 256/1/3 265/1/3
f 267/6/3 260/6/3 259/6/3
f 267/5/3 259/5/3 266/5/3
f 268/6/3 260/6/3 267/6/3
f 269/4/3 235/4/3 234/4/3
f 270/1/3 236/1/3 235/1/3
f 270/4/3 235/4/3 269/4/3
f 271/1/3 236/1/3 270/1/3
f 275/5/3 273/5/3 272/5/3
f 276/5/3 273/5/3 275/5/3
f 277/5/3 275/5/3 272/5/3
f 278/5/3 275/5/3 277/5/3
f 279/5/3 273/5/3 276/5/3
f 280/1/3 274/1/3 273/1/3
f 280/5/3 273/5/3 279/5/3
f 281/1/3 274/1/3 280/1/3
f 282/1/3 274/1/3 281/1/3
f 288/5/3 284/5/3 283/5/3
f 288/5/3 285/5/3 284/5/3
f 289/1/3 287/1/3 286/1/3
f 289/5/3 285/5/3 288/5/3
f 289/1/3 286/1/3 285/1/3
f 290/1/3 287/1/3 289/1/3
f 293/5/3 292/5/3 291/5/3
f 294/5/3 292/5/3 293/5/3
f 297/6/3 296/6/3 295/6/3
f 298/6/3 296/6/3 297/6/3
f 301/6/3 300/6/3 299/6/3
f 302/6/3 300/6/3 301/6/3
f 305/5/3 304/5/3 303/5/3
f 306/5/3 304/5/3 305/5/3
f 318/1/3 308/1/3 307/1/3
f 319/6/3 309/6/3 308/6/3
f 319/1/3 308/1/3 318/1/3
f 320/1/3 310/1/3 309/1/3
f 320/6/3 309/6/3 319/6/3
f 321/6/3 311/6/3 310/6/3
f 321/1/3 310/1/3 320/1/3
f 322/1/3 312/1/3 311/1/3
f 322/6/3 311/6/3 321/6/3
f 323/5/3 313/5/3 312/5/3
f 323/1/3 312/1/3 322/1/3
f 324/6/3 314/6/3 313/6/3
f 324/5/3 313/5/3 323/5/3
f 325/1/3 315/1/3 314/1/3
f 325/6/3 314/6/3 324/6/3
f 326/4/3 316/4/3 315/4/3
f 326/1/3 315/1/3 325/1/3
f 327/1/3 317/1/3 316/1/3
f 327/4/3 316/4/3 326/4/3
f 328/1/3 317/1/3 327/1/3
f 329/3/4 330/3/4 333/3/4
f 333/3/4 330/3/4 334/3/4
f 331/3/4 332/3/4 335/3/4
f 335/3/4 332/3/4 336/3/4
f 341/1/4 342/1/4 348/1/4
f 342/5/4 343/5/4 348/5/4
f 343/5/4 344/5/4 348/5/4
f 348/5/4 344/5/4 349/5/4
f 349/5/4 344/5/4 350/5/4
f 339/1/4 340/1/4 351/1/4
f 340/6/4 341/6/4 352/6/4
f 351/1/4 340/1/4 352/1/4
f 341/1/4 348/1/4 353/1/4
f 352/6/4 341/6/4 353/6/4
f 348/6/4 349/6/4 354/6/4
f 353/1/4 348/1/4 354/1/4
f 354/6/4 349/6/4 355/6/4
f 349/2/4 350/2/4 356/2/4
f 355/6/4 349/6/4 356/6/4
f 350/5/4 344/5/4 357/5/4
f 356/2/4 350/2/4 357/2/4
f 339/1/4 351/1/4 358/1/4
f 351/5/4 352/5/4 358/5/4
f 352/5/4 353/5/4 358/5/4
f 353/5/4 354/5/4 358/5/4
f 354/5/4 355/5/4 358/5/4
f 358/5/4 355/5/4 359/5/4
f 359/5/4 355/5/4 360/5/4
f 360/5/4 355/5/4 361/5/4
f 355/6/4 356/6/4 362/6/4
f 361/5/4 355/5/4 362/5/4
f 356/5/4 357/5/4 363/5/4
f 362/6/4 356/6/4 363/6/4
f 357/5/4 344/5/4 364/5/4
f 363/5/4 357/5/4 364/5/4
f 360/1/4 361/1/4 365/1/4
f 362/6/4 363/6/4 365/6/4
f 361/6/4 362/6/4 365/6/4
f 363/2/4 364/2/4 366/2/4
f 365/6/4 363/6/4 366/6/4
f 364/5/4 344/5/4 367/5/4
f 366/2/4 364/2/4 367/2/4
f 337/1/4 338/1/4 368/1/4
f 338/6/4 339/6/4 369/6/4
f 368/1/4 338/1/4 369/1/4
f 339/1/4 358/1/4 370/1/4
f 369/6/4 339/6/4 370/6/4
f 358/1/4 359/1/4 370/1/4
f 359/6/4 360/6/4 371/6/4
f 370/1/4 359/1/4 371/1/4
f 360/1/4 365/1/4 372/1/4
f 371/6/4 360/6/4 372/6/4
f 365/5/4 366/5/4 373/5/4
f 372/1/4 365/1/4 373/1/4
f 366/5/4 367/5/4 373/5/4
f 373/5/4 367/5/4 374/5/4
f 367/5/4 344/5/4 375/5/4
f 374/5/4 367/5/4 375/5/4
f 344/1/4 345/1/4 375/1/4
f 345/4/4 346/4/4 376/4/4
f 375/1/4 345/1/4 376/1/4
f 346/1/4 347/1/4 377/1/4
f 376/4/4 346/4/4 377/4/4
f 377/1/4 347/1/4 378/1/4
f 379/5/4 380/5/4 384/5/4
f 384/5/4 380/5/4 385/5/4
f 380/1/4 381/1/4 386/1/4
f 385/5/4 380/5/4 386/5/4
f 386/1/4 381/1/4 387/1/4
f 387/1/4 381/1/4 388/1/4
f 382/5/4 383/5/4 389/5/4
f 389/5/4 383/5/4 390/5/4
f 391/6/4 392/6/4 393/6/4
f 393/6/4 392/6/4 394/6/4
f 395/6/4 396/6/4 397/6/4
f 397/6/4 396/6/4 398/6/4
f 404/5/4 405/5/4 406/5/4
f 406/5/4 405/5/4 407/5/4
f 399/5/4 400/5/4 408/5/4
f 400/5/4 401/5/4 408/5/4
f 401/1/4 402/1/4 409/1/4
f 408/5/4 401/5/4 409/5/4
f 402/1/4 403/1/4 409/1/4
f 409/1/4 403/1/4 410/1/4
f 411/1/4 412/1/4 422/1/4
f 412/6/4 413/6/4 423/6/4
f 422/1/4 412/1/4 423/1/4
f 413/1/4 414/1/4 424/1/4
f 423/6/4 413/6/4 424/6/4
f 414/6/4 415/6/4 425/6/4
f 424/1/4 414/1/4 425/1/4
f 415/1/4 416/1/4 426/1/4
f 425/6/4 415/6/4 426/6/4
f 416/5/4 417/5/4 427/5/4
f 426/1/4 416/1/4 427/1/4
f 417/6/4 418/6/4 428/6/4
f 427/5/4 417/5/4 428/5/4
f 418/1/4 419/1/4 429/1/4
f 428/6/4 418/6/4 429/6/4
f 419/4/4 420/4/4 430/4/4
f 429/1/4 419/1/4 430/1/4
f 420/1/4 421/1/4 431/1/4
f 430/4/4 420/4/4 431/4/4
f 431/1/4 421/1/4 432/1/4
f 437/6/5 434/6/5 433/6/5
f 438/6/5 434/6/5 437/6/5
f 439/6/5 436/6/5 435/6/5
f 440/6/5 436/6/5 439/6/5
f 443/1/5 442/1/5 441/1/5
f 444/1/5 442/1/5 443/1/5
f 445/1/5 443/1/5 441/1/5
f 445/6/5 444/6/5 443/6/5
f 446/6/5 444/6/5 445/6/5
f 447/6/5 444/6/5 446/6/5
f 448/1/5 442/1/5 444/1/5
f 448/6/5 444/6/5 447/6/5
f 449/1/5 445/1/5 441/1/5
f 450/6/5 447/6/5 446/6/5
f 451/6/5 447/6/5 450/6/5
f 452/1/5 442/1/5 448/1/5
f 453/1/5 449/1/5 441/1/5
f 453/6/5 452/6/5 451/6/5
f 453/6/5 451/6/5 450/6/5
f 453/6/5 450/6/5 449/6/5
f 454/1/5 442/1/5 452/1/5
f 454/6/5 452/6/5 453/6/5
f 455/1/5 453/1/5 441/1/5
f 455/1/5 454/1/5 453/1/5
f 456/1/5 442/1/5 454/1/5
f 456/1/5 454/1/5 455/1/5
f 459/3/5 458/3/5 457/3/5
f 460/3/5 458/3/5 459/3/5
f 463/3/5 462/3/5 461/3/5
f 464/3/5 462/3/5 463/3/5
f 469/5/5 466/5/5 465/5/5
f 470/5/5 466/5/5 469/5/5
f 471/5/5 468/5/5 467/5/5
f 472/5/5 468/5/5 471/5/5
f 475/6/5 474/6/5 473/6/5
f 476/6/5 474/6/5 475/6/5
f 479/6/5 478/6/5 477/6/5
f 480/6/5 479/6/5 477/6/5
f 481/6/5 479/6/5 480/6/5
f 486/5/5 483/5/5 482/5/5
f 487/5/5 483/5/5 486/5/5
f 488/5/5 485/5/5 484/5/5
f 489/5/5 485/5/5 488/5/5
f 492/1/5 491/1/5 490/1/5
f 493/1/5 491/1/5 492/1/5
f 494/1/5 491/1/5 493/1/5
f 495/1/5 491/1/5 494/1/5
f 498/1/5 497/1/5 496/1/5
f 499/1/5 497/1/5 498/1/5
f 500/6/6 501/6/6 502/6/6
f 502/6/6 501/6/6 503/6/6
f 502/1/6 503/1/6 504/1/6
f 503/6/6 501/6/6 505/6/6
f 504/1/6 503/1/6 505/1/6
f 504/6/6 505/6/6 506/6/6
f 505/6/6 501/6/6 507/6/6
f 506/6/6 505/6/6 507/6/6
f 508/6/6 509/6/6 510/6/6
f 510/6/6 509/6/6 511/6/6
f 512/6/6 513/6/6 514/6/6
f 512/6/6 514/6/6 515/6/6
f 515/6/6 514/6/6 516/6/6
f 517/3/6 518/3/6 519/3/6
f 519/3/6 518/3/6 520/3/6
f 521/3/6 522/3/6 523/3/6
f 523/3/6 522/3/6 524/3/6
f 525/1/6 526/1/6 529/1/6
f 529/1/6 526/1/6 530/1/6
f 527/1/6 528/1/6 531/1/6
f 531/1/6 528/1/6 532/1/6
f 533/5/6 534/5/6 537/5/6
f 537/5/6 534/5/6 538/5/6
f 535/5/6 536/5/6 539/5/6
f 539/5/6 536/5/6 540/5/6
f 541/1/6 542/1/6 543/1/6
f 543/1/6 542/1/6 544/1/6
f 545/1/6 546/1/6 547/1/6
f 547/1/6 546/1/6 548/1/6
