# MagicaVoxel @ Ephtracy

# group
o 

# material
mtllib item1.mtl
usemtl palette

# normals
vn -1 0 0
vn 1 0 0
vn 0 0 1
vn 0 0 -1
vn 0 -1 0
vn 0 1 0

# texcoords
vt 0.970703 0.5
vt 0.978516 0.5

# verts
v -0.4 0.4 0.1
v -0.4 0.4 -0.1
v -0.4 0.7 0.1
v -0.4 0.7 -0.1
v -0.1 0.1 0.1
v -0.1 0.1 -0.1
v -0.1 0.4 0.1
v -0.1 0.4 -0.1
v -0.1 0.7 0.1
v -0.1 0.7 -0.1
v -0.1 1 0.1
v -0.1 1 -0.1
v 0.1 0.1 0.1
v 0.1 0.1 -0.1
v 0.1 0.2 0.1
v 0.1 0.2 -0.1
v 0.1 0.9 0.1
v 0.1 0.9 -0.1
v 0.1 1 0.1
v 0.1 1 -0.1
v 0.2 0.2 0.1
v 0.2 0.2 -0.1
v 0.2 0.3 0.1
v 0.2 0.3 -0.1
v 0.2 0.8 0.1
v 0.2 0.8 -0.1
v 0.2 0.9 0.1
v 0.2 0.9 -0.1
v 0.3 0.3 0.1
v 0.3 0.3 -0.1
v 0.3 0.4 0.1
v 0.3 0.4 -0.1
v 0.3 0.7 0.1
v 0.3 0.7 -0.1
v 0.3 0.8 0.1
v 0.3 0.8 -0.1
v 0.4 0.4 0.1
v 0.4 0.4 -0.1
v 0.4 0.5 0.1
v 0.4 0.5 -0.1
v 0.4 0.6 0.1
v 0.4 0.6 -0.1
v 0.4 0.7 0.1
v 0.4 0.7 -0.1
v 0.5 0.5 0.1
v 0.5 0.5 -0.1
v 0.5 0.6 0.1
v 0.5 0.6 -0.1
v -0.4 0.4 0.1
v -0.4 0.7 0.1
v -0.3 0.5 0.1
v -0.3 0.6 0.1
v -0.1 0.1 0.1
v -0.1 0.4 0.1
v -0.1 0.7 0.1
v -0.1 1 0.1
v 0 0.2 0.1
v 0 0.5 0.1
v 0 0.6 0.1
v 0 0.9 0.1
v 0.1 0.1 0.1
v 0.1 0.2 0.1
v 0.1 0.3 0.1
v 0.1 0.8 0.1
v 0.1 0.9 0.1
v 0.1 1 0.1
v 0.2 0.2 0.1
v 0.2 0.3 0.1
v 0.2 0.4 0.1
v 0.2 0.7 0.1
v 0.2 0.8 0.1
v 0.2 0.9 0.1
v 0.3 0.3 0.1
v 0.3 0.4 0.1
v 0.3 0.5 0.1
v 0.3 0.6 0.1
v 0.3 0.7 0.1
v 0.3 0.8 0.1
v 0.4 0.4 0.1
v 0.4 0.5 0.1
v 0.4 0.6 0.1
v 0.4 0.7 0.1
v 0.5 0.5 0.1
v 0.5 0.6 0.1
v -0.4 0.4 -0.1
v -0.4 0.7 -0.1
v -0.3 0.5 -0.1
v -0.3 0.6 -0.1
v -0.1 0.1 -0.1
v -0.1 0.4 -0.1
v -0.1 0.7 -0.1
v -0.1 1 -0.1
v 0 0.2 -0.1
v 0 0.5 -0.1
v 0 0.6 -0.1
v 0 0.9 -0.1
v 0.1 0.1 -0.1
v 0.1 0.2 -0.1
v 0.1 0.3 -0.1
v 0.1 0.8 -0.1
v 0.1 0.9 -0.1
v 0.1 1 -0.1
v 0.2 0.2 -0.1
v 0.2 0.3 -0.1
v 0.2 0.4 -0.1
v 0.2 0.7 -0.1
v 0.2 0.8 -0.1
v 0.2 0.9 -0.1
v 0.3 0.3 -0.1
v 0.3 0.4 -0.1
v 0.3 0.5 -0.1
v 0.3 0.6 -0.1
v 0.3 0.7 -0.1
v 0.3 0.8 -0.1
v 0.4 0.4 -0.1
v 0.4 0.5 -0.1
v 0.4 0.6 -0.1
v 0.4 0.7 -0.1
v 0.5 0.5 -0.1
v 0.5 0.6 -0.1
v -0.1 0.1 0.1
v 0.1 0.1 0.1
v -0.1 0.1 -0.1
v 0.1 0.1 -0.1
v 0.1 0.2 0.1
v 0.2 0.2 0.1
v 0.1 0.2 -0.1
v 0.2 0.2 -0.1
v 0.2 0.3 0.1
v 0.3 0.3 0.1
v 0.2 0.3 -0.1
v 0.3 0.3 -0.1
v -0.4 0.4 0.1
v -0.1 0.4 0.1
v 0.3 0.4 0.1
v 0.4 0.4 0.1
v -0.4 0.4 -0.1
v -0.1 0.4 -0.1
v 0.3 0.4 -0.1
v 0.4 0.4 -0.1
v 0.4 0.5 0.1
v 0.5 0.5 0.1
v 0.4 0.5 -0.1
v 0.5 0.5 -0.1
v 0.4 0.6 0.1
v 0.5 0.6 0.1
v 0.4 0.6 -0.1
v 0.5 0.6 -0.1
v -0.4 0.7 0.1
v -0.1 0.7 0.1
v 0.3 0.7 0.1
v 0.4 0.7 0.1
v -0.4 0.7 -0.1
v -0.1 0.7 -0.1
v 0.3 0.7 -0.1
v 0.4 0.7 -0.1
v 0.2 0.8 0.1
v 0.3 0.8 0.1
v 0.2 0.8 -0.1
v 0.3 0.8 -0.1
v 0.1 0.9 0.1
v 0.2 0.9 0.1
v 0.1 0.9 -0.1
v 0.2 0.9 -0.1
v -0.1 1 0.1
v 0.1 1 0.1
v -0.1 1 -0.1
v 0.1 1 -0.1

# faces
f 3/2/1 2/2/1 1/2/1
f 4/2/1 2/2/1 3/2/1
f 7/2/1 6/2/1 5/2/1
f 8/2/1 6/2/1 7/2/1
f 11/2/1 10/2/1 9/2/1
f 12/2/1 10/2/1 11/2/1
f 13/2/2 14/2/2 15/2/2
f 15/2/2 14/2/2 16/2/2
f 17/2/2 18/2/2 19/2/2
f 19/2/2 18/2/2 20/2/2
f 21/2/2 22/2/2 23/2/2
f 23/2/2 22/2/2 24/2/2
f 25/2/2 26/2/2 27/2/2
f 27/2/2 26/2/2 28/2/2
f 29/2/2 30/2/2 31/2/2
f 31/2/2 30/2/2 32/2/2
f 33/2/2 34/2/2 35/2/2
f 35/2/2 34/2/2 36/2/2
f 37/2/2 38/2/2 39/2/2
f 39/2/2 38/2/2 40/2/2
f 41/2/2 42/2/2 43/2/2
f 43/2/2 42/2/2 44/2/2
f 45/2/2 46/2/2 47/2/2
f 47/2/2 46/2/2 48/2/2
f 51/2/3 50/2/3 49/2/3
f 52/2/3 50/2/3 51/2/3
f 54/2/3 51/2/3 49/2/3
f 55/2/3 50/2/3 52/2/3
f 57/2/3 54/2/3 53/2/3
f 58/1/3 52/1/3 51/1/3
f 58/2/3 54/2/3 57/2/3
f 58/2/3 51/2/3 54/2/3
f 59/2/3 56/2/3 55/2/3
f 59/1/3 52/1/3 58/1/3
f 59/2/3 55/2/3 52/2/3
f 60/2/3 56/2/3 59/2/3
f 61/2/3 57/2/3 53/2/3
f 62/1/3 58/1/3 57/1/3
f 62/2/3 57/2/3 61/2/3
f 62/1/3 59/1/3 58/1/3
f 62/1/3 60/1/3 59/1/3
f 63/1/3 60/1/3 62/1/3
f 64/1/3 60/1/3 63/1/3
f 65/2/3 56/2/3 60/2/3
f 65/1/3 60/1/3 64/1/3
f 66/2/3 56/2/3 65/2/3
f 67/2/3 63/2/3 62/2/3
f 68/1/3 64/1/3 63/1/3
f 68/2/3 63/2/3 67/2/3
f 69/1/3 64/1/3 68/1/3
f 70/1/3 64/1/3 69/1/3
f 71/2/3 65/2/3 64/2/3
f 71/1/3 64/1/3 70/1/3
f 72/2/3 65/2/3 71/2/3
f 73/2/3 69/2/3 68/2/3
f 74/1/3 70/1/3 69/1/3
f 74/2/3 69/2/3 73/2/3
f 75/1/3 70/1/3 74/1/3
f 76/1/3 70/1/3 75/1/3
f 77/2/3 71/2/3 70/2/3
f 77/1/3 70/1/3 76/1/3
f 78/2/3 71/2/3 77/2/3
f 79/2/3 75/2/3 74/2/3
f 80/1/3 76/1/3 75/1/3
f 80/2/3 75/2/3 79/2/3
f 81/2/3 77/2/3 76/2/3
f 81/1/3 76/1/3 80/1/3
f 82/2/3 77/2/3 81/2/3
f 83/2/3 81/2/3 80/2/3
f 84/2/3 81/2/3 83/2/3
f 85/2/4 86/2/4 87/2/4
f 87/2/4 86/2/4 88/2/4
f 85/2/4 87/2/4 90/2/4
f 88/2/4 86/2/4 91/2/4
f 89/2/4 90/2/4 93/2/4
f 87/1/4 88/1/4 94/1/4
f 93/2/4 90/2/4 94/2/4
f 90/2/4 87/2/4 94/2/4
f 91/2/4 92/2/4 95/2/4
f 94/1/4 88/1/4 95/1/4
f 88/2/4 91/2/4 95/2/4
f 95/2/4 92/2/4 96/2/4
f 89/2/4 93/2/4 97/2/4
f 93/1/4 94/1/4 98/1/4
f 97/2/4 93/2/4 98/2/4
f 94/1/4 95/1/4 98/1/4
f 95/1/4 96/1/4 98/1/4
f 98/1/4 96/1/4 99/1/4
f 99/1/4 96/1/4 100/1/4
f 96/2/4 92/2/4 101/2/4
f 100/1/4 96/1/4 101/1/4
f 101/2/4 92/2/4 102/2/4
f 98/2/4 99/2/4 103/2/4
f 99/1/4 100/1/4 104/1/4
f 103/2/4 99/2/4 104/2/4
f 104/1/4 100/1/4 105/1/4
f 105/1/4 100/1/4 106/1/4
f 100/2/4 101/2/4 107/2/4
f 106/1/4 100/1/4 107/1/4
f 107/2/4 101/2/4 108/2/4
f 104/2/4 105/2/4 109/2/4
f 105/1/4 106/1/4 110/1/4
f 109/2/4 105/2/4 110/2/4
f 110/1/4 106/1/4 111/1/4
f 111/1/4 106/1/4 112/1/4
f 106/2/4 107/2/4 113/2/4
f 112/1/4 106/1/4 113/1/4
f 113/2/4 107/2/4 114/2/4
f 110/2/4 111/2/4 115/2/4
f 111/1/4 112/1/4 116/1/4
f 115/2/4 111/2/4 116/2/4
f 112/2/4 113/2/4 117/2/4
f 116/1/4 112/1/4 117/1/4
f 117/2/4 113/2/4 118/2/4
f 116/2/4 117/2/4 119/2/4
f 119/2/4 117/2/4 120/2/4
f 123/2/5 122/2/5 121/2/5
f 124/2/5 122/2/5 123/2/5
f 127/2/5 126/2/5 125/2/5
f 128/2/5 126/2/5 127/2/5
f 131/2/5 130/2/5 129/2/5
f 132/2/5 130/2/5 131/2/5
f 137/2/5 134/2/5 133/2/5
f 138/2/5 134/2/5 137/2/5
f 139/2/5 136/2/5 135/2/5
f 140/2/5 136/2/5 139/2/5
f 143/2/5 142/2/5 141/2/5
f 144/2/5 142/2/5 143/2/5
f 145/2/6 146/2/6 147/2/6
f 147/2/6 146/2/6 148/2/6
f 149/2/6 150/2/6 153/2/6
f 153/2/6 150/2/6 154/2/6
f 151/2/6 152/2/6 155/2/6
f 155/2/6 152/2/6 156/2/6
f 157/2/6 158/2/6 159/2/6
f 159/2/6 158/2/6 160/2/6
f 161/2/6 162/2/6 163/2/6
f 163/2/6 162/2/6 164/2/6
f 165/2/6 166/2/6 167/2/6
f 167/2/6 166/2/6 168/2/6
