# This file uses centimeters as units for non-parametric coordinates.

mtllib shadowM.mtl
g default
v -0.606218 0.000000 0.350000
v 0.606218 0.000000 0.350000
v -0.000000 0.000000 -0.700000
v 0.000000 0.000000 0.700000
v 0.606218 0.000000 -0.350000
v -0.606218 0.000000 -0.350000
v -0.000000 0.000000 0.000000
v -0.700000 0.000000 0.000000
v -0.350000 0.000000 0.606218
v 0.000000 0.000000 0.350000
v -0.303109 0.000000 -0.175000
v -0.303109 0.000000 0.175000
v 0.350000 0.000000 0.606218
v 0.700000 0.000000 -0.000000
v 0.303109 0.000000 -0.175000
v 0.303109 0.000000 0.175000
v 0.350000 0.000000 -0.606218
v -0.350000 0.000000 -0.606218
v -0.000000 0.000000 -0.350000
v -0.454663 0.000000 -0.262500
v -0.676148 0.000000 -0.181173
v -0.501554 0.000000 0.087500
v -0.303109 0.000000 0.000000
v -0.478109 0.000000 -0.087500
v -0.676148 0.000000 0.181173
v -0.494975 0.000000 0.494975
v -0.326554 0.000000 0.390609
v -0.489832 0.000000 0.282804
v -0.181173 0.000000 0.676148
v 0.000000 0.000000 0.525000
v -0.151554 0.000000 0.262500
v -0.163277 0.000000 0.457804
v -0.000000 0.000000 0.175000
v -0.151554 0.000000 -0.087500
v -0.151554 0.000000 0.087500
v 0.181173 0.000000 0.676148
v 0.326554 0.000000 0.390609
v 0.151554 0.000000 0.262500
v 0.163277 0.000000 0.457804
v 0.494975 0.000000 0.494975
v 0.676148 0.000000 0.181173
v 0.501554 0.000000 0.087500
v 0.489832 0.000000 0.282804
v 0.676148 0.000000 -0.181173
v 0.454663 0.000000 -0.262500
v 0.303109 0.000000 -0.000000
v 0.478109 0.000000 -0.087500
v 0.151554 0.000000 -0.087500
v 0.151554 0.000000 0.087500
v 0.494975 0.000000 -0.494975
v 0.175000 0.000000 -0.478109
v 0.151554 0.000000 -0.262500
v 0.314832 0.000000 -0.370304
v 0.181173 0.000000 -0.676148
v -0.181173 0.000000 -0.676148
v -0.175000 0.000000 -0.478109
v -0.000000 0.000000 -0.565609
v -0.494975 0.000000 -0.494975
v -0.151554 0.000000 -0.262500
v -0.314832 0.000000 -0.370304
v -0.000000 0.000000 -0.175000
vt 0.066987 0.250000
vt 0.933013 0.250000
vt 0.500000 1.000000
vt 0.500000 0.000000
vt 0.933013 0.750000
vt 0.066987 0.750000
vt 0.500000 0.500000
vt 0.000000 0.500000
vt 0.250000 0.066987
vt 0.500000 0.250000
vt 0.283494 0.625000
vt 0.283494 0.375000
vt 0.750000 0.066987
vt 1.000000 0.500000
vt 0.716506 0.625000
vt 0.716506 0.375000
vt 0.750000 0.933013
vt 0.250000 0.933013
vt 0.500000 0.750000
vt 0.175240 0.687500
vt 0.017037 0.629409
vt 0.141747 0.437500
vt 0.283494 0.500000
vt 0.158494 0.562500
vt 0.017037 0.370590
vt 0.146447 0.146447
vt 0.266747 0.220994
vt 0.150120 0.297997
vt 0.370591 0.017037
vt 0.500000 0.125000
vt 0.391747 0.312500
vt 0.383373 0.172997
vt 0.500000 0.375000
vt 0.391747 0.562500
vt 0.391747 0.437500
vt 0.629410 0.017037
vt 0.733253 0.220994
vt 0.608253 0.312500
vt 0.616627 0.172997
vt 0.853553 0.146447
vt 0.982963 0.370591
vt 0.858253 0.437500
vt 0.849880 0.297997
vt 0.982963 0.629410
vt 0.824759 0.687500
vt 0.716506 0.500000
vt 0.841506 0.562500
vt 0.608253 0.562500
vt 0.608253 0.437500
vt 0.853553 0.853553
vt 0.625000 0.841506
vt 0.608253 0.687500
vt 0.724880 0.764503
vt 0.629409 0.982963
vt 0.370590 0.982963
vt 0.375000 0.841506
vt 0.500000 0.904006
vt 0.146447 0.853553
vt 0.391747 0.687500
vt 0.275120 0.764503
vt 0.500000 0.625000
vn 0.000000 1.000000 0.000000
vn 0.000000 1.000000 0.000000
vn 0.000000 1.000000 0.000000
vn 0.000000 1.000000 0.000000
vn 0.000000 1.000000 0.000000
vn 0.000000 1.000000 0.000000
vn 0.000000 1.000000 0.000000
vn 0.000000 1.000000 0.000000
vn 0.000000 1.000000 0.000000
vn 0.000000 1.000000 0.000000
vn 0.000000 1.000000 0.000000
vn 0.000000 1.000000 0.000000
vn 0.000000 1.000000 0.000000
vn 0.000000 1.000000 0.000000
vn 0.000000 1.000000 0.000000
vn 0.000000 1.000000 0.000000
vn 0.000000 1.000000 0.000000
vn 0.000000 1.000000 0.000000
vn 0.000000 1.000000 0.000000
vn 0.000000 1.000000 0.000000
vn 0.000000 1.000000 0.000000
vn 0.000000 1.000000 0.000000
vn 0.000000 1.000000 0.000000
vn 0.000000 1.000000 0.000000
vn 0.000000 1.000000 0.000000
vn 0.000000 1.000000 0.000000
vn 0.000000 1.000000 0.000000
vn 0.000000 1.000000 0.000000
vn 0.000000 1.000000 0.000000
vn 0.000000 1.000000 0.000000
vn 0.000000 1.000000 0.000000
vn 0.000000 1.000000 0.000000
vn 0.000000 1.000000 0.000000
vn 0.000000 1.000000 0.000000
vn 0.000000 1.000000 0.000000
vn 0.000000 1.000000 0.000000
vn 0.000000 1.000000 0.000000
vn 0.000000 1.000000 0.000000
vn 0.000000 1.000000 0.000000
vn 0.000000 1.000000 0.000000
vn 0.000000 1.000000 0.000000
vn 0.000000 1.000000 0.000000
vn 0.000000 1.000000 0.000000
vn 0.000000 1.000000 0.000000
vn 0.000000 1.000000 0.000000
vn 0.000000 1.000000 0.000000
vn 0.000000 1.000000 0.000000
vn 0.000000 1.000000 0.000000
vn 0.000000 1.000000 0.000000
vn 0.000000 1.000000 0.000000
vn 0.000000 1.000000 0.000000
vn 0.000000 1.000000 0.000000
vn 0.000000 1.000000 0.000000
vn 0.000000 1.000000 0.000000
vn 0.000000 1.000000 0.000000
vn 0.000000 1.000000 0.000000
vn 0.000000 1.000000 0.000000
vn 0.000000 1.000000 0.000000
vn 0.000000 1.000000 0.000000
vn 0.000000 1.000000 0.000000
vn 0.000000 1.000000 0.000000
s 1
g pDisc1
usemtl initialShadingGroup
f 23/23/1 11/11/2 24/24/3
f 24/24/3 11/11/2 20/20/4
f 6/6/5 21/21/6 20/20/4
f 20/20/4 21/21/6 24/24/3
f 21/21/6 8/8/7 24/24/3
f 24/24/3 8/8/7 22/22/8
f 12/12/9 23/23/1 22/22/8
f 22/22/8 23/23/1 24/24/3
f 8/8/7 25/25/10 22/22/8
f 22/22/8 25/25/10 28/28/11
f 25/25/10 1/1/12 28/28/11
f 28/28/11 1/1/12 26/26/13
f 9/9/14 27/27/15 26/26/13
f 26/26/13 27/27/15 28/28/11
f 27/27/15 12/12/9 28/28/11
f 28/28/11 12/12/9 22/22/8
f 27/27/15 9/9/14 32/32/16
f 32/32/16 9/9/14 29/29/17
f 4/4/18 30/30/19 29/29/17
f 29/29/17 30/30/19 32/32/16
f 30/30/19 10/10/20 32/32/16
f 32/32/16 10/10/20 31/31/21
f 12/12/9 27/27/15 31/31/21
f 31/31/21 27/27/15 32/32/16
f 10/10/20 33/33/22 31/31/21
f 31/31/21 33/33/22 35/35/23
f 33/33/22 7/7/24 35/35/23
f 35/35/23 7/7/24 34/34/25
f 11/11/2 23/23/1 34/34/25
f 34/34/25 23/23/1 35/35/23
f 23/23/1 12/12/9 35/35/23
f 35/35/23 12/12/9 31/31/21
f 38/38/26 10/10/20 39/39/27
f 39/39/27 10/10/20 30/30/19
f 4/4/18 36/36/28 30/30/19
f 30/30/19 36/36/28 39/39/27
f 36/36/28 13/13/29 39/39/27
f 39/39/27 13/13/29 37/37/30
f 16/16/31 38/38/26 37/37/30
f 37/37/30 38/38/26 39/39/27
f 13/13/29 40/40/32 37/37/30
f 37/37/30 40/40/32 43/43/33
f 40/40/32 2/2/34 43/43/33
f 43/43/33 2/2/34 41/41/35
f 14/14/36 42/42/37 41/41/35
f 41/41/35 42/42/37 43/43/33
f 42/42/37 16/16/31 43/43/33
f 43/43/33 16/16/31 37/37/30
f 42/42/37 14/14/36 47/47/38
f 47/47/38 14/14/36 44/44/39
f 5/5/40 45/45/41 44/44/39
f 44/44/39 45/45/41 47/47/38
f 45/45/41 15/15/42 47/47/38
f 47/47/38 15/15/42 46/46/43
f 16/16/31 42/42/37 46/46/43
f 46/46/43 42/42/37 47/47/38
f 15/15/42 48/48/44 46/46/43
f 46/46/43 48/48/44 49/49/45
f 48/48/44 7/7/24 49/49/45
f 49/49/45 7/7/24 33/33/22
f 10/10/20 38/38/26 33/33/22
f 33/33/22 38/38/26 49/49/45
f 38/38/26 16/16/31 49/49/45
f 49/49/45 16/16/31 46/46/43
f 52/52/46 15/15/42 53/53/47
f 53/53/47 15/15/42 45/45/41
f 5/5/40 50/50/48 45/45/41
f 45/45/41 50/50/48 53/53/47
f 50/50/48 17/17/49 53/53/47
f 53/53/47 17/17/49 51/51/50
f 19/19/51 52/52/46 51/51/50
f 51/51/50 52/52/46 53/53/47
f 17/17/49 54/54/52 51/51/50
f 51/51/50 54/54/52 57/57/53
f 54/54/52 3/3/54 57/57/53
f 57/57/53 3/3/54 55/55/55
f 18/18/56 56/56/57 55/55/55
f 55/55/55 56/56/57 57/57/53
f 56/56/57 19/19/51 57/57/53
f 57/57/53 19/19/51 51/51/50
f 56/56/57 18/18/56 60/60/58
f 60/60/58 18/18/56 58/58/59
f 6/6/5 20/20/4 58/58/59
f 58/58/59 20/20/4 60/60/58
f 20/20/4 11/11/2 60/60/58
f 60/60/58 11/11/2 59/59/60
f 19/19/51 56/56/57 59/59/60
f 59/59/60 56/56/57 60/60/58
f 11/11/2 34/34/25 59/59/60
f 59/59/60 34/34/25 61/61/61
f 34/34/25 7/7/24 61/61/61
f 61/61/61 7/7/24 48/48/44
f 15/15/42 52/52/46 48/48/44
f 48/48/44 52/52/46 61/61/61
f 52/52/46 19/19/51 61/61/61
f 61/61/61 19/19/51 59/59/60
g default
v -0.606218 0.000000 0.350000
v 0.606218 0.000000 0.350000
v -0.000000 0.000000 -0.700000
v 0.000000 0.000000 0.700000
v 0.606218 0.000000 -0.350000
v -0.606218 0.000000 -0.350000
v -0.000000 0.000000 0.000000
v -0.700000 0.000000 0.000000
v -0.350000 0.000000 0.606218
v 0.000000 0.000000 0.350000
v -0.303109 0.000000 -0.175000
v -0.303109 0.000000 0.175000
v 0.350000 0.000000 0.606218
v 0.700000 0.000000 -0.000000
v 0.303109 0.000000 -0.175000
v 0.303109 0.000000 0.175000
v 0.350000 0.000000 -0.606218
v -0.350000 0.000000 -0.606218
v -0.000000 0.000000 -0.350000
v -0.454663 0.000000 -0.262500
v -0.676148 0.000000 -0.181173
v -0.501554 0.000000 0.087500
v -0.303109 0.000000 0.000000
v -0.478109 0.000000 -0.087500
v -0.676148 0.000000 0.181173
v -0.494975 0.000000 0.494975
v -0.326554 0.000000 0.390609
v -0.489832 0.000000 0.282804
v -0.181173 0.000000 0.676148
v 0.000000 0.000000 0.525000
v -0.151554 0.000000 0.262500
v -0.163277 0.000000 0.457804
v -0.000000 0.000000 0.175000
v -0.151554 0.000000 -0.087500
v -0.151554 0.000000 0.087500
v 0.181173 0.000000 0.676148
v 0.326554 0.000000 0.390609
v 0.151554 0.000000 0.262500
v 0.163277 0.000000 0.457804
v 0.494975 0.000000 0.494975
v 0.676148 0.000000 0.181173
v 0.501554 0.000000 0.087500
v 0.489832 0.000000 0.282804
v 0.676148 0.000000 -0.181173
v 0.454663 0.000000 -0.262500
v 0.303109 0.000000 -0.000000
v 0.478109 0.000000 -0.087500
v 0.151554 0.000000 -0.087500
v 0.151554 0.000000 0.087500
v 0.494975 0.000000 -0.494975
v 0.175000 0.000000 -0.478109
v 0.151554 0.000000 -0.262500
v 0.314832 0.000000 -0.370304
v 0.181173 0.000000 -0.676148
v -0.181173 0.000000 -0.676148
v -0.175000 0.000000 -0.478109
v -0.000000 0.000000 -0.565609
v -0.494975 0.000000 -0.494975
v -0.151554 0.000000 -0.262500
v -0.314832 0.000000 -0.370304
v -0.000000 0.000000 -0.175000
vt 0.066987 0.250000
vt 0.933013 0.250000
vt 0.500000 1.000000
vt 0.500000 0.000000
vt 0.933013 0.750000
vt 0.066987 0.750000
vt 0.500000 0.500000
vt 0.000000 0.500000
vt 0.250000 0.066987
vt 0.500000 0.250000
vt 0.283494 0.625000
vt 0.283494 0.375000
vt 0.750000 0.066987
vt 1.000000 0.500000
vt 0.716506 0.625000
vt 0.716506 0.375000
vt 0.750000 0.933013
vt 0.250000 0.933013
vt 0.500000 0.750000
vt 0.175240 0.687500
vt 0.017037 0.629409
vt 0.141747 0.437500
vt 0.283494 0.500000
vt 0.158494 0.562500
vt 0.017037 0.370590
vt 0.146447 0.146447
vt 0.266747 0.220994
vt 0.150120 0.297997
vt 0.370591 0.017037
vt 0.500000 0.125000
vt 0.391747 0.312500
vt 0.383373 0.172997
vt 0.500000 0.375000
vt 0.391747 0.562500
vt 0.391747 0.437500
vt 0.629410 0.017037
vt 0.733253 0.220994
vt 0.608253 0.312500
vt 0.616627 0.172997
vt 0.853553 0.146447
vt 0.982963 0.370591
vt 0.858253 0.437500
vt 0.849880 0.297997
vt 0.982963 0.629410
vt 0.824759 0.687500
vt 0.716506 0.500000
vt 0.841506 0.562500
vt 0.608253 0.562500
vt 0.608253 0.437500
vt 0.853553 0.853553
vt 0.625000 0.841506
vt 0.608253 0.687500
vt 0.724880 0.764503
vt 0.629409 0.982963
vt 0.370590 0.982963
vt 0.375000 0.841506
vt 0.500000 0.904006
vt 0.146447 0.853553
vt 0.391747 0.687500
vt 0.275120 0.764503
vt 0.500000 0.625000
vn 0.000000 1.000000 0.000000
vn 0.000000 1.000000 0.000000
vn 0.000000 1.000000 0.000000
vn 0.000000 1.000000 0.000000
vn 0.000000 1.000000 0.000000
vn 0.000000 1.000000 0.000000
vn 0.000000 1.000000 0.000000
vn 0.000000 1.000000 0.000000
vn 0.000000 1.000000 0.000000
vn 0.000000 1.000000 0.000000
vn 0.000000 1.000000 0.000000
vn 0.000000 1.000000 0.000000
vn 0.000000 1.000000 0.000000
vn 0.000000 1.000000 0.000000
vn 0.000000 1.000000 0.000000
vn 0.000000 1.000000 0.000000
vn 0.000000 1.000000 0.000000
vn 0.000000 1.000000 0.000000
vn 0.000000 1.000000 0.000000
vn 0.000000 1.000000 0.000000
vn 0.000000 1.000000 0.000000
vn 0.000000 1.000000 0.000000
vn 0.000000 1.000000 0.000000
vn 0.000000 1.000000 0.000000
vn 0.000000 1.000000 0.000000
vn 0.000000 1.000000 0.000000
vn 0.000000 1.000000 0.000000
vn 0.000000 1.000000 0.000000
vn 0.000000 1.000000 0.000000
vn 0.000000 1.000000 0.000000
vn 0.000000 1.000000 0.000000
vn 0.000000 1.000000 0.000000
vn 0.000000 1.000000 0.000000
vn 0.000000 1.000000 0.000000
vn 0.000000 1.000000 0.000000
vn 0.000000 1.000000 0.000000
vn 0.000000 1.000000 0.000000
vn 0.000000 1.000000 0.000000
vn 0.000000 1.000000 0.000000
vn 0.000000 1.000000 0.000000
vn 0.000000 1.000000 0.000000
vn 0.000000 1.000000 0.000000
vn 0.000000 1.000000 0.000000
vn 0.000000 1.000000 0.000000
vn 0.000000 1.000000 0.000000
vn 0.000000 1.000000 0.000000
vn 0.000000 1.000000 0.000000
vn 0.000000 1.000000 0.000000
vn 0.000000 1.000000 0.000000
vn 0.000000 1.000000 0.000000
vn 0.000000 1.000000 0.000000
vn 0.000000 1.000000 0.000000
vn 0.000000 1.000000 0.000000
vn 0.000000 1.000000 0.000000
vn 0.000000 1.000000 0.000000
vn 0.000000 1.000000 0.000000
vn 0.000000 1.000000 0.000000
vn 0.000000 1.000000 0.000000
vn 0.000000 1.000000 0.000000
vn 0.000000 1.000000 0.000000
vn 0.000000 1.000000 0.000000
s 1
g pDisc1
f 84/84/62 72/72/63 85/85/64
f 85/85/64 72/72/63 81/81/65
f 67/67/66 82/82/67 81/81/65
f 81/81/65 82/82/67 85/85/64
f 82/82/67 69/69/68 85/85/64
f 85/85/64 69/69/68 83/83/69
f 73/73/70 84/84/62 83/83/69
f 83/83/69 84/84/62 85/85/64
f 69/69/68 86/86/71 83/83/69
f 83/83/69 86/86/71 89/89/72
f 86/86/71 62/62/73 89/89/72
f 89/89/72 62/62/73 87/87/74
f 70/70/75 88/88/76 87/87/74
f 87/87/74 88/88/76 89/89/72
f 88/88/76 73/73/70 89/89/72
f 89/89/72 73/73/70 83/83/69
f 88/88/76 70/70/75 93/93/77
f 93/93/77 70/70/75 90/90/78
f 65/65/79 91/91/80 90/90/78
f 90/90/78 91/91/80 93/93/77
f 91/91/80 71/71/81 93/93/77
f 93/93/77 71/71/81 92/92/82
f 73/73/70 88/88/76 92/92/82
f 92/92/82 88/88/76 93/93/77
f 71/71/81 94/94/83 92/92/82
f 92/92/82 94/94/83 96/96/84
f 94/94/83 68/68/85 96/96/84
f 96/96/84 68/68/85 95/95/86
f 72/72/63 84/84/62 95/95/86
f 95/95/86 84/84/62 96/96/84
f 84/84/62 73/73/70 96/96/84
f 96/96/84 73/73/70 92/92/82
f 99/99/87 71/71/81 100/100/88
f 100/100/88 71/71/81 91/91/80
f 65/65/79 97/97/89 91/91/80
f 91/91/80 97/97/89 100/100/88
f 97/97/89 74/74/90 100/100/88
f 100/100/88 74/74/90 98/98/91
f 77/77/92 99/99/87 98/98/91
f 98/98/91 99/99/87 100/100/88
f 74/74/90 101/101/93 98/98/91
f 98/98/91 101/101/93 104/104/94
f 101/101/93 63/63/95 104/104/94
f 104/104/94 63/63/95 102/102/96
f 75/75/97 103/103/98 102/102/96
f 102/102/96 103/103/98 104/104/94
f 103/103/98 77/77/92 104/104/94
f 104/104/94 77/77/92 98/98/91
f 103/103/98 75/75/97 108/108/99
f 108/108/99 75/75/97 105/105/100
f 66/66/101 106/106/102 105/105/100
f 105/105/100 106/106/102 108/108/99
f 106/106/102 76/76/103 108/108/99
f 108/108/99 76/76/103 107/107/104
f 77/77/92 103/103/98 107/107/104
f 107/107/104 103/103/98 108/108/99
f 76/76/103 109/109/105 107/107/104
f 107/107/104 109/109/105 110/110/106
f 109/109/105 68/68/85 110/110/106
f 110/110/106 68/68/85 94/94/83
f 71/71/81 99/99/87 94/94/83
f 94/94/83 99/99/87 110/110/106
f 99/99/87 77/77/92 110/110/106
f 110/110/106 77/77/92 107/107/104
f 113/113/107 76/76/103 114/114/108
f 114/114/108 76/76/103 106/106/102
f 66/66/101 111/111/109 106/106/102
f 106/106/102 111/111/109 114/114/108
f 111/111/109 78/78/110 114/114/108
f 114/114/108 78/78/110 112/112/111
f 80/80/112 113/113/107 112/112/111
f 112/112/111 113/113/107 114/114/108
f 78/78/110 115/115/113 112/112/111
f 112/112/111 115/115/113 118/118/114
f 115/115/113 64/64/115 118/118/114
f 118/118/114 64/64/115 116/116/116
f 79/79/117 117/117/118 116/116/116
f 116/116/116 117/117/118 118/118/114
f 117/117/118 80/80/112 118/118/114
f 118/118/114 80/80/112 112/112/111
f 117/117/118 79/79/117 121/121/119
f 121/121/119 79/79/117 119/119/120
f 67/67/66 81/81/65 119/119/120
f 119/119/120 81/81/65 121/121/119
f 81/81/65 72/72/63 121/121/119
f 121/121/119 72/72/63 120/120/121
f 80/80/112 117/117/118 120/120/121
f 120/120/121 117/117/118 121/121/119
f 72/72/63 95/95/86 120/120/121
f 120/120/121 95/95/86 122/122/122
f 95/95/86 68/68/85 122/122/122
f 122/122/122 68/68/85 109/109/105
f 76/76/103 113/113/107 109/109/105
f 109/109/105 113/113/107 122/122/122
f 113/113/107 80/80/112 122/122/122
f 122/122/122 80/80/112 120/120/121
