# This file uses centimeters as units for non-parametric coordinates.

mtllib shadow.mtl
g default
v -0.866025 0.000000 0.500000
v 0.866025 0.000000 0.500000
v -0.000000 0.000000 -1.000000
v 0.000000 0.000000 1.000000
v 0.866025 0.000000 -0.500000
v -0.866025 0.000000 -0.500000
v -0.000000 0.000000 0.000000
v -1.000000 0.000000 0.000000
v -0.500000 0.000000 0.866025
v 0.000000 0.000000 0.500000
v -0.433013 0.000000 -0.250000
v -0.433013 0.000000 0.250000
v 0.500000 0.000000 0.866025
v 1.000000 0.000000 -0.000000
v 0.433013 0.000000 -0.250000
v 0.433013 0.000000 0.250000
v 0.500000 0.000000 -0.866025
v -0.500000 0.000000 -0.866025
v -0.000000 0.000000 -0.500000
v -0.649519 0.000000 -0.375000
v -0.965926 0.000000 -0.258819
v -0.716506 0.000000 0.125000
v -0.433013 0.000000 0.000000
v -0.683013 0.000000 -0.125000
v -0.965926 0.000000 0.258819
v -0.707107 0.000000 0.707107
v -0.466506 0.000000 0.558013
v -0.699759 0.000000 0.404006
v -0.258819 0.000000 0.965926
v 0.000000 0.000000 0.750000
v -0.216506 0.000000 0.375000
v -0.233253 0.000000 0.654006
v -0.000000 0.000000 0.250000
v -0.216506 0.000000 -0.125000
v -0.216506 0.000000 0.125000
v 0.258819 0.000000 0.965926
v 0.466506 0.000000 0.558013
v 0.216506 0.000000 0.375000
v 0.233253 0.000000 0.654006
v 0.707107 0.000000 0.707107
v 0.965926 0.000000 0.258819
v 0.716506 0.000000 0.125000
v 0.699759 0.000000 0.404006
v 0.965926 0.000000 -0.258819
v 0.649519 0.000000 -0.375000
v 0.433013 0.000000 -0.000000
v 0.683013 0.000000 -0.125000
v 0.216506 0.000000 -0.125000
v 0.216506 0.000000 0.125000
v 0.707107 0.000000 -0.707107
v 0.250000 0.000000 -0.683013
v 0.216506 0.000000 -0.375000
v 0.449759 0.000000 -0.529006
v 0.258819 0.000000 -0.965926
v -0.258819 0.000000 -0.965926
v -0.250000 0.000000 -0.683013
v -0.000000 0.000000 -0.808013
v -0.707107 0.000000 -0.707107
v -0.216506 0.000000 -0.375000
v -0.449760 0.000000 -0.529006
v -0.000000 0.000000 -0.250000
v 0.366627 0.000000 0.760016
v 0.841506 0.000000 -0.062500
v 0.474880 0.000000 -0.697516
v -0.366627 0.000000 0.760016
v -0.474880 0.000000 -0.697516
v -0.841506 0.000000 -0.062500
v 0.129410 0.000000 0.857963
v 0.807722 0.000000 -0.316910
v 0.678313 0.000000 -0.541053
v -0.129409 0.000000 0.857963
v -0.678313 0.000000 -0.541053
v -0.807722 0.000000 -0.316909
v 0.578433 0.000000 -0.618057
v 0.824469 0.000000 -0.191910
v 0.246036 0.000000 0.809966
v -0.246036 0.000000 0.809966
v -0.578433 0.000000 -0.618056
v -0.824469 0.000000 -0.191909
v 0.483253 0.000000 0.712019
v 0.574759 0.000000 0.062500
v -0.483253 0.000000 0.712019
v -0.574759 0.000000 0.062500
v 0.375000 0.000000 -0.774519
v -0.375000 0.000000 -0.774519
v 0.858253 0.000000 0.062500
v 0.574759 0.000000 0.187500
v -0.341506 0.000000 0.466506
v -0.233253 0.000000 -0.529006
v 0.341506 0.000000 0.466506
v -0.574759 0.000000 0.187500
v -0.858253 0.000000 0.062500
v 0.125000 0.000000 -0.591506
v -0.125000 0.000000 -0.591506
v 0.449760 0.000000 0.404006
v -0.449760 0.000000 0.404006
v 0.233253 0.000000 -0.529006
v -0.000000 0.000000 -0.654006
v -0.566386 0.000000 0.327003
v 0.566386 0.000000 0.327003
v 0.832843 0.000000 0.331413
v 0.703433 0.000000 0.555556
v -0.129410 0.000000 -0.886969
v 0.129409 0.000000 -0.886969
v -0.703433 0.000000 0.555557
v -0.832843 0.000000 0.331413
v 0.254409 0.000000 -0.824469
v -0.254410 0.000000 -0.824469
v 0.841216 0.000000 0.191909
v 0.586807 0.000000 0.632560
v -0.586806 0.000000 0.632560
v -0.841216 0.000000 0.191910
v -0.558013 0.000000 -0.062500
v 0.224880 0.000000 0.514503
v -0.558013 0.000000 -0.187500
v -0.333133 0.000000 -0.452003
v 0.558013 0.000000 -0.062500
v 0.116627 0.000000 0.577003
v -0.441386 0.000000 -0.389503
v -0.708133 0.000000 0.264503
v 0.708133 0.000000 0.264503
v 0.125000 0.000000 -0.745513
v 0.558013 0.000000 -0.187500
v -0.116627 0.000000 0.577003
v -0.125000 0.000000 -0.745513
v 0.583133 0.000000 0.481009
v -0.583133 0.000000 0.481010
v 0.441386 0.000000 -0.389503
v -0.224880 0.000000 0.514503
v 0.333133 0.000000 -0.452003
vt 0.066987 0.250000
vt 0.933013 0.250000
vt 0.500000 1.000000
vt 0.500000 0.000000
vt 0.933013 0.750000
vt 0.066987 0.750000
vt 0.500000 0.500000
vt 0.000000 0.500000
vt 0.250000 0.066987
vt 0.500000 0.250000
vt 0.283494 0.625000
vt 0.283494 0.375000
vt 0.750000 0.066987
vt 1.000000 0.500000
vt 0.716506 0.625000
vt 0.716506 0.375000
vt 0.750000 0.933013
vt 0.250000 0.933013
vt 0.500000 0.750000
vt 0.175240 0.687500
vt 0.017037 0.629409
vt 0.141747 0.437500
vt 0.283494 0.500000
vt 0.158494 0.562500
vt 0.017037 0.370590
vt 0.146447 0.146447
vt 0.266747 0.220994
vt 0.150120 0.297997
vt 0.370591 0.017037
vt 0.500000 0.125000
vt 0.391747 0.312500
vt 0.383373 0.172997
vt 0.500000 0.375000
vt 0.391747 0.562500
vt 0.391747 0.437500
vt 0.629410 0.017037
vt 0.733253 0.220994
vt 0.608253 0.312500
vt 0.616627 0.172997
vt 0.853553 0.146447
vt 0.982963 0.370591
vt 0.858253 0.437500
vt 0.849880 0.297997
vt 0.982963 0.629410
vt 0.824759 0.687500
vt 0.716506 0.500000
vt 0.841506 0.562500
vt 0.608253 0.562500
vt 0.608253 0.437500
vt 0.853553 0.853553
vt 0.625000 0.841506
vt 0.608253 0.687500
vt 0.724880 0.764503
vt 0.629409 0.982963
vt 0.370590 0.982963
vt 0.375000 0.841506
vt 0.500000 0.904006
vt 0.146447 0.853553
vt 0.391747 0.687500
vt 0.275120 0.764503
vt 0.500000 0.625000
vt 0.683313 0.119992
vt 0.920753 0.531250
vt 0.737440 0.848758
vt 0.316687 0.119992
vt 0.262560 0.848758
vt 0.079247 0.531250
vt 0.564705 0.071019
vt 0.903861 0.658455
vt 0.839156 0.770527
vt 0.435295 0.071019
vt 0.160843 0.770527
vt 0.096139 0.658455
vt 0.789217 0.809028
vt 0.912235 0.595955
vt 0.623018 0.095017
vt 0.376982 0.095017
vt 0.210783 0.809028
vt 0.087765 0.595955
vt 0.741627 0.143991
vt 0.787380 0.468750
vt 0.258373 0.143990
vt 0.212620 0.468750
vt 0.687500 0.887260
vt 0.312500 0.887259
vt 0.929127 0.468750
vt 0.787380 0.406250
vt 0.329247 0.266747
vt 0.383373 0.764503
vt 0.670753 0.266747
vt 0.212620 0.406250
vt 0.070873 0.468750
vt 0.562500 0.795753
vt 0.437500 0.795753
vt 0.724880 0.297997
vt 0.275120 0.297997
vt 0.616627 0.764503
vt 0.500000 0.827003
vt 0.216807 0.336498
vt 0.783193 0.336498
vt 0.916421 0.334294
vt 0.851717 0.222222
vt 0.435295 0.943485
vt 0.564705 0.943485
vt 0.148283 0.222222
vt 0.083579 0.334294
vt 0.627205 0.912235
vt 0.372795 0.912235
vt 0.920608 0.404045
vt 0.793403 0.183720
vt 0.206597 0.183720
vt 0.079392 0.404045
vt 0.220994 0.531250
vt 0.612440 0.242748
vt 0.220994 0.593750
vt 0.333434 0.726002
vt 0.779006 0.531250
vt 0.558313 0.211498
vt 0.279307 0.694752
vt 0.145934 0.367748
vt 0.854066 0.367748
vt 0.562500 0.872756
vt 0.779006 0.593750
vt 0.441687 0.211498
vt 0.437500 0.872756
vt 0.791566 0.259495
vt 0.208434 0.259495
vt 0.720693 0.694752
vt 0.387560 0.242748
vt 0.666566 0.726002
vn 0.000000 1.000000 0.000000
vn 0.000000 1.000000 0.000000
vn 0.000000 1.000000 0.000000
vn 0.000000 1.000000 0.000000
vn 0.000000 1.000000 0.000000
vn 0.000000 1.000000 0.000000
vn 0.000000 1.000000 0.000000
vn 0.000000 1.000000 0.000000
vn 0.000000 1.000000 0.000000
vn 0.000000 1.000000 0.000000
vn 0.000000 1.000000 0.000000
vn 0.000000 1.000000 0.000000
vn 0.000000 1.000000 0.000000
vn 0.000000 1.000000 0.000000
vn 0.000000 1.000000 0.000000
vn 0.000000 1.000000 0.000000
vn 0.000000 1.000000 0.000000
vn 0.000000 1.000000 0.000000
vn 0.000000 1.000000 0.000000
vn 0.000000 1.000000 0.000000
vn 0.000000 1.000000 0.000000
vn 0.000000 1.000000 0.000000
vn 0.000000 1.000000 0.000000
vn 0.000000 1.000000 0.000000
vn 0.000000 1.000000 0.000000
vn 0.000000 1.000000 0.000000
vn 0.000000 1.000000 0.000000
vn 0.000000 1.000000 0.000000
vn 0.000000 1.000000 0.000000
vn 0.000000 1.000000 0.000000
vn 0.000000 1.000000 0.000000
vn 0.000000 1.000000 0.000000
vn 0.000000 1.000000 0.000000
vn 0.000000 1.000000 0.000000
vn 0.000000 1.000000 0.000000
vn 0.000000 1.000000 0.000000
vn 0.000000 1.000000 0.000000
vn 0.000000 1.000000 0.000000
vn 0.000000 1.000000 0.000000
vn 0.000000 1.000000 0.000000
vn 0.000000 1.000000 0.000000
vn 0.000000 1.000000 0.000000
vn 0.000000 1.000000 0.000000
vn 0.000000 1.000000 0.000000
vn 0.000000 1.000000 0.000000
vn 0.000000 1.000000 0.000000
vn 0.000000 1.000000 0.000000
vn 0.000000 1.000000 0.000000
vn 0.000000 1.000000 0.000000
vn 0.000000 1.000000 0.000000
vn 0.000000 1.000000 0.000000
vn 0.000000 1.000000 0.000000
vn 0.000000 1.000000 0.000000
vn 0.000000 1.000000 0.000000
vn 0.000000 1.000000 0.000000
vn 0.000000 1.000000 0.000000
vn 0.000000 1.000000 0.000000
vn 0.000000 1.000000 0.000000
vn 0.000000 1.000000 0.000000
vn 0.000000 1.000000 0.000000
vn 0.000000 1.000000 0.000000
vn 0.000000 1.000000 0.000000
vn 0.000000 1.000000 0.000000
vn 0.000000 1.000000 0.000000
vn 0.000000 1.000000 0.000000
vn 0.000000 1.000000 0.000000
vn 0.000000 1.000000 0.000000
vn 0.000000 1.000000 0.000000
vn 0.000000 1.000000 0.000000
vn 0.000000 1.000000 0.000000
vn 0.000000 1.000000 0.000000
vn 0.000000 1.000000 0.000000
vn 0.000000 1.000000 0.000000
vn 0.000000 1.000000 0.000000
vn 0.000000 1.000000 0.000000
vn 0.000000 1.000000 0.000000
vn 0.000000 1.000000 0.000000
vn 0.000000 1.000000 0.000000
vn 0.000000 1.000000 0.000000
vn 0.000000 1.000000 0.000000
vn 0.000000 1.000000 0.000000
vn 0.000000 1.000000 0.000000
vn 0.000000 1.000000 0.000000
vn 0.000000 1.000000 0.000000
vn 0.000000 1.000000 0.000000
vn 0.000000 1.000000 0.000000
vn 0.000000 1.000000 0.000000
vn 0.000000 1.000000 0.000000
vn 0.000000 1.000000 0.000000
vn 0.000000 1.000000 0.000000
vn 0.000000 1.000000 0.000000
vn 0.000000 1.000000 0.000000
vn 0.000000 1.000000 0.000000
vn 0.000000 1.000000 0.000000
vn 0.000000 1.000000 0.000000
vn 0.000000 1.000000 0.000000
vn 0.000000 1.000000 0.000000
vn 0.000000 1.000000 0.000000
vn 0.000000 1.000000 0.000000
vn 0.000000 1.000000 0.000000
vn 0.000000 1.000000 0.000000
vn 0.000000 1.000000 0.000000
vn 0.000000 1.000000 0.000000
vn 0.000000 1.000000 0.000000
vn 0.000000 1.000000 0.000000
vn 0.000000 1.000000 0.000000
vn 0.000000 1.000000 0.000000
vn 0.000000 1.000000 0.000000
vn 0.000000 1.000000 0.000000
vn 0.000000 1.000000 0.000000
vn 0.000000 1.000000 0.000000
vn 0.000000 1.000000 0.000000
vn 0.000000 1.000000 0.000000
vn 0.000000 1.000000 0.000000
vn 0.000000 1.000000 0.000000
vn 0.000000 1.000000 0.000000
vn 0.000000 1.000000 0.000000
vn 0.000000 1.000000 0.000000
vn 0.000000 1.000000 0.000000
vn 0.000000 1.000000 0.000000
vn 0.000000 1.000000 0.000000
vn 0.000000 1.000000 0.000000
vn 0.000000 1.000000 0.000000
vn 0.000000 1.000000 0.000000
vn 0.000000 1.000000 0.000000
vn 0.000000 1.000000 0.000000
vn 0.000000 1.000000 0.000000
vn 0.000000 1.000000 0.000000
vn 0.000000 1.000000 0.000000
vn 0.000000 1.000000 0.000000
s 1
g pDisc1
usemtl initialShadingGroup
f 23/23/1 11/11/2 113/113/3
f 24/24/4 115/115/5 20/20/6
f 6/6/7 73/73/8 20/20/6
f 20/20/6 73/73/8 24/24/4
f 79/79/9 67/67/10 24/24/4
f 24/24/4 67/67/10 22/22/11
f 12/12/12 83/83/13 91/91/14
f 22/22/11 83/83/13 24/24/4
f 92/92/15 112/112/16 22/22/11
f 112/112/16 106/106/17 120/120/18
f 106/106/17 1/1/19 28/28/20
f 28/28/20 1/1/19 105/105/21
f 82/82/22 111/111/23 26/26/24
f 105/105/21 127/127/25 28/28/20
f 96/96/26 99/99/27 127/127/25
f 28/28/20 99/99/27 120/120/18
f 27/27/28 65/65/29 32/32/30
f 32/32/30 65/65/29 77/77/31
f 4/4/32 71/71/33 29/29/34
f 77/77/31 71/71/33 32/32/30
f 30/30/35 124/124/36 32/32/30
f 32/32/30 124/124/36 129/129/37
f 12/12/12 88/88/38 31/31/39
f 129/129/37 88/88/38 32/32/30
f 10/10/40 33/33/41 31/31/39
f 31/31/39 33/33/41 35/35/42
f 33/33/41 7/7/43 35/35/42
f 35/35/42 7/7/43 34/34/44
f 11/11/2 23/23/1 34/34/44
f 34/34/44 23/23/1 35/35/42
f 23/23/1 12/12/12 35/35/42
f 35/35/42 12/12/12 31/31/39
f 38/38/45 10/10/40 114/114/46
f 39/39/47 118/118/48 30/30/35
f 4/4/32 68/68/49 30/30/35
f 30/30/35 68/68/49 39/39/47
f 76/76/50 62/62/51 39/39/47
f 39/39/47 62/62/51 37/37/52
f 16/16/53 90/90/54 95/95/55
f 37/37/52 90/90/54 39/39/47
f 80/80/56 110/110/57 37/37/52
f 110/110/57 102/102/58 126/126/59
f 102/102/58 2/2/60 43/43/61
f 43/43/61 2/2/60 101/101/62
f 86/86/63 109/109/64 41/41/65
f 101/101/62 121/121/66 43/43/61
f 87/87/67 100/100/68 121/121/66
f 43/43/61 100/100/68 126/126/59
f 42/42/69 63/63/70 47/47/71
f 47/47/71 63/63/70 75/75/72
f 5/5/73 69/69/74 44/44/75
f 75/75/72 69/69/74 47/47/71
f 45/45/76 123/123/77 47/47/71
f 47/47/71 123/123/77 117/117/78
f 16/16/53 81/81/79 46/46/80
f 117/117/78 81/81/79 47/47/71
f 15/15/81 48/48/82 46/46/80
f 46/46/80 48/48/82 49/49/83
f 48/48/82 7/7/43 49/49/83
f 49/49/83 7/7/43 33/33/41
f 10/10/40 38/38/45 33/33/41
f 33/33/41 38/38/45 49/49/83
f 38/38/45 16/16/53 49/49/83
f 49/49/83 16/16/53 46/46/80
f 52/52/84 128/128/85 130/130/86
f 53/53/87 128/128/85 45/45/76
f 5/5/73 70/70/88 45/45/76
f 45/45/76 70/70/88 53/53/87
f 74/74/89 64/64/90 53/53/87
f 53/53/87 64/64/90 51/51/91
f 19/19/92 52/52/84 93/93/93
f 51/51/91 97/97/94 53/53/87
f 84/84/95 107/107/96 51/51/91
f 107/107/96 104/104/97 122/122/98
f 104/104/97 3/3/99 57/57/100
f 57/57/100 3/3/99 103/103/101
f 85/85/102 108/108/103 55/55/104
f 103/103/101 125/125/105 57/57/100
f 94/94/106 98/98/107 125/125/105
f 57/57/100 98/98/107 122/122/98
f 56/56/108 66/66/109 60/60/110
f 60/60/110 66/66/109 78/78/111
f 6/6/7 72/72/112 58/58/113
f 78/78/111 72/72/112 60/60/110
f 20/20/6 119/119/114 60/60/110
f 60/60/110 119/119/114 116/116/115
f 19/19/92 89/89/116 59/59/117
f 116/116/115 89/89/116 60/60/110
f 11/11/2 34/34/44 59/59/117
f 59/59/117 34/34/44 61/61/118
f 34/34/44 7/7/43 61/61/118
f 61/61/118 7/7/43 48/48/82
f 15/15/81 52/52/84 48/48/82
f 48/48/82 52/52/84 61/61/118
f 52/52/84 19/19/92 61/61/118
f 61/61/118 19/19/92 59/59/117
f 13/13/119 62/62/51 36/36/120
f 62/62/51 80/80/56 37/37/52
f 86/86/63 63/63/70 42/42/69
f 63/63/70 14/14/121 44/44/75
f 17/17/122 64/64/90 50/50/123
f 64/64/90 84/84/95 51/51/91
f 82/82/22 65/65/29 27/27/28
f 65/65/29 9/9/124 29/29/34
f 85/85/102 66/66/109 56/56/108
f 66/66/109 18/18/125 58/58/113
f 8/8/126 67/67/10 21/21/127
f 67/67/10 92/92/15 22/22/11
f 36/36/120 68/68/49 4/4/32
f 68/68/49 76/76/50 39/39/47
f 45/45/76 69/69/74 5/5/73
f 69/69/74 45/45/76 47/47/71
f 50/50/123 70/70/88 5/5/73
f 70/70/88 74/74/89 53/53/87
f 30/30/35 71/71/33 4/4/32
f 71/71/33 30/30/35 32/32/30
f 20/20/6 72/72/112 6/6/7
f 72/72/112 20/20/6 60/60/110
f 21/21/127 73/73/8 6/6/7
f 73/73/8 79/79/9 24/24/4
f 50/50/123 74/74/89 70/70/88
f 74/74/89 50/50/123 64/64/90
f 44/44/75 75/75/72 63/63/70
f 75/75/72 44/44/75 69/69/74
f 36/36/120 76/76/50 68/68/49
f 76/76/50 36/36/120 62/62/51
f 29/29/34 77/77/31 65/65/29
f 77/77/31 29/29/34 71/71/33
f 58/58/113 78/78/111 66/66/109
f 78/78/111 58/58/113 72/72/112
f 21/21/127 79/79/9 73/73/8
f 79/79/9 21/21/127 67/67/10
f 13/13/119 80/80/56 62/62/51
f 80/80/56 13/13/119 40/40/128
f 87/87/67 81/81/79 16/16/53
f 81/81/79 42/42/69 47/47/71
f 9/9/124 82/82/22 26/26/24
f 82/82/22 9/9/124 65/65/29
f 23/23/1 83/83/13 12/12/12
f 83/83/13 23/23/1 113/113/3
f 17/17/122 84/84/95 64/64/90
f 84/84/95 17/17/122 54/54/129
f 18/18/125 85/85/102 55/55/104
f 85/85/102 18/18/125 66/66/109
f 14/14/121 86/86/63 41/41/65
f 86/86/63 14/14/121 63/63/70
f 121/121/66 100/100/68 43/43/61
f 87/87/67 42/42/69 81/81/79
f 96/96/26 88/88/38 12/12/12
f 88/88/38 27/27/28 32/32/30
f 94/94/106 89/89/116 19/19/92
f 89/89/116 56/56/108 60/60/110
f 38/38/45 90/90/54 16/16/53
f 90/90/54 38/38/45 114/114/46
f 22/22/11 91/91/14 83/83/13
f 91/91/14 22/22/11 120/120/18
f 8/8/126 92/92/15 67/67/10
f 92/92/15 8/8/126 25/25/130
f 51/51/91 93/93/93 97/97/94
f 93/93/93 51/51/91 122/122/98
f 125/125/105 98/98/107 57/57/100
f 94/94/106 56/56/108 89/89/116
f 37/37/52 95/95/55 90/90/54
f 95/95/55 37/37/52 126/126/59
f 127/127/25 99/99/27 28/28/20
f 96/96/26 27/27/28 88/88/38
f 52/52/84 97/97/94 93/93/93
f 97/97/94 52/52/84 130/130/86
f 19/19/92 98/98/107 94/94/106
f 98/98/107 19/19/92 93/93/93
f 12/12/12 99/99/27 96/96/26
f 99/99/27 12/12/12 91/91/14
f 16/16/53 100/100/68 87/87/67
f 100/100/68 16/16/53 95/95/55
f 41/41/65 101/101/62 2/2/60
f 101/101/62 41/41/65 109/109/64
f 110/110/57 126/126/59 37/37/52
f 102/102/58 40/40/128 2/2/60
f 55/55/104 103/103/101 3/3/99
f 103/103/101 55/55/104 108/108/103
f 107/107/96 122/122/98 51/51/91
f 104/104/97 54/54/129 3/3/99
f 26/26/24 105/105/21 1/1/19
f 105/105/21 26/26/24 111/111/23
f 112/112/16 120/120/18 22/22/11
f 106/106/17 25/25/130 1/1/19
f 54/54/129 107/107/96 84/84/95
f 107/107/96 54/54/129 104/104/97
f 56/56/108 108/108/103 85/85/102
f 108/108/103 125/125/105 103/103/101
f 42/42/69 109/109/64 86/86/63
f 109/109/64 121/121/66 101/101/62
f 40/40/128 110/110/57 80/80/56
f 110/110/57 40/40/128 102/102/58
f 27/27/28 111/111/23 82/82/22
f 111/111/23 127/127/25 105/105/21
f 25/25/130 112/112/16 92/92/15
f 112/112/16 25/25/130 106/106/17
f 24/24/4 113/113/3 115/115/5
f 113/113/3 24/24/4 83/83/13
f 39/39/47 114/114/46 118/118/48
f 114/114/46 39/39/47 90/90/54
f 11/11/2 115/115/5 113/113/3
f 115/115/5 119/119/114 20/20/6
f 59/59/117 116/116/115 11/11/2
f 116/116/115 59/59/117 89/89/116
f 46/46/80 117/117/78 15/15/81
f 117/117/78 46/46/80 81/81/79
f 10/10/40 118/118/48 114/114/46
f 118/118/48 124/124/36 30/30/35
f 11/11/2 119/119/114 115/115/5
f 119/119/114 11/11/2 116/116/115
f 28/28/20 120/120/18 106/106/17
f 120/120/18 99/99/27 91/91/14
f 42/42/69 121/121/66 109/109/64
f 121/121/66 42/42/69 87/87/67
f 57/57/100 122/122/98 104/104/97
f 122/122/98 98/98/107 93/93/93
f 15/15/81 123/123/77 128/128/85
f 123/123/77 15/15/81 117/117/78
f 10/10/40 124/124/36 118/118/48
f 124/124/36 10/10/40 31/31/39
f 56/56/108 125/125/105 108/108/103
f 125/125/105 56/56/108 94/94/106
f 43/43/61 126/126/59 102/102/58
f 126/126/59 100/100/68 95/95/55
f 27/27/28 127/127/25 111/111/23
f 127/127/25 27/27/28 96/96/26
f 15/15/81 128/128/85 52/52/84
f 128/128/85 123/123/77 45/45/76
f 31/31/39 129/129/37 124/124/36
f 129/129/37 31/31/39 88/88/38
f 53/53/87 130/130/86 128/128/85
f 130/130/86 53/53/87 97/97/94
