# MagicaVoxel @ Ephtracy

# group
o 

# material
mtllib tree_a.mtl
usemtl palette

# normals
vn -1 0 0
vn 1 0 0
vn 0 0 1
vn 0 0 -1
vn 0 -1 0
vn 0 1 0

# texcoords
vt 0.970703 0.5
vt 0.974609 0.5

# verts
v -0.8 1.1 0.7
v -0.8 1.1 -0.7
v -0.8 2 0.7
v -0.8 2 -0.7
v -0.7 1.1 0.8
v -0.7 1.1 0.7
v -0.7 1.1 -0.7
v -0.7 1.1 -0.8
v -0.7 2 0.8
v -0.7 2 0.7
v -0.7 2 -0.7
v -0.7 2 -0.8
v -0.6 2 0.5
v -0.6 2 -0.5
v -0.6 2.5 0.5
v -0.6 2.5 -0.5
v -0.5 2 0.6
v -0.5 2 0.5
v -0.5 2 -0.5
v -0.5 2 -0.6
v -0.5 2.5 0.6
v -0.5 2.5 0.5
v -0.5 2.5 -0.5
v -0.5 2.5 -0.6
v -0.4 2.5 0.4
v -0.4 2.5 -0.4
v -0.4 2.8 0.4
v -0.4 2.8 -0.4
v -0.3 2.8 0.3
v -0.3 2.8 -0.3
v -0.3 3 0.3
v -0.3 3 -0.3
v -0.2 0 0.1
v -0.2 0 -0.1
v -0.2 1.1 0.1
v -0.2 1.1 -0.1
v -0.2 3 0.2
v -0.2 3 -0.2
v -0.2 3.2 0.2
v -0.2 3.2 -0.2
v -0.1 0 0.2
v -0.1 0 0.1
v -0.1 0 -0.1
v -0.1 0 -0.2
v -0.1 1.1 0.2
v -0.1 1.1 0.1
v -0.1 1.1 -0.1
v -0.1 1.1 -0.2
v 0.1 0 0.2
v 0.1 0 0.1
v 0.1 0 -0.1
v 0.1 0 -0.2
v 0.1 1.1 0.2
v 0.1 1.1 0.1
v 0.1 1.1 -0.1
v 0.1 1.1 -0.2
v 0.2 0 0.1
v 0.2 0 -0.1
v 0.2 1.1 0.1
v 0.2 1.1 -0.1
v 0.2 3 0.2
v 0.2 3 -0.2
v 0.2 3.2 0.2
v 0.2 3.2 -0.2
v 0.3 2.8 0.3
v 0.3 2.8 -0.3
v 0.3 3 0.3
v 0.3 3 -0.3
v 0.4 2.5 0.4
v 0.4 2.5 -0.4
v 0.4 2.8 0.4
v 0.4 2.8 -0.4
v 0.5 2 0.6
v 0.5 2 0.5
v 0.5 2 -0.5
v 0.5 2 -0.6
v 0.5 2.5 0.6
v 0.5 2.5 0.5
v 0.5 2.5 -0.5
v 0.5 2.5 -0.6
v 0.6 2 0.5
v 0.6 2 -0.5
v 0.6 2.5 0.5
v 0.6 2.5 -0.5
v 0.7 1.1 0.8
v 0.7 1.1 0.7
v 0.7 1.1 -0.7
v 0.7 1.1 -0.8
v 0.7 2 0.8
v 0.7 2 0.7
v 0.7 2 -0.7
v 0.7 2 -0.8
v 0.8 1.1 0.7
v 0.8 1.1 -0.7
v 0.8 2 0.7
v 0.8 2 -0.7
v -0.7 1.1 0.8
v -0.7 2 0.8
v 0.7 1.1 0.8
v 0.7 2 0.8
v -0.8 1.1 0.7
v -0.8 2 0.7
v -0.7 1.1 0.7
v -0.7 2 0.7
v 0.7 1.1 0.7
v 0.7 2 0.7
v 0.8 1.1 0.7
v 0.8 2 0.7
v -0.5 2 0.6
v -0.5 2.5 0.6
v 0.5 2 0.6
v 0.5 2.5 0.6
v -0.6 2 0.5
v -0.6 2.5 0.5
v -0.5 2 0.5
v -0.5 2.5 0.5
v 0.5 2 0.5
v 0.5 2.5 0.5
v 0.6 2 0.5
v 0.6 2.5 0.5
v -0.4 2.5 0.4
v -0.4 2.8 0.4
v 0.4 2.5 0.4
v 0.4 2.8 0.4
v -0.3 2.8 0.3
v -0.3 3 0.3
v 0.3 2.8 0.3
v 0.3 3 0.3
v -0.2 3 0.2
v -0.2 3.2 0.2
v -0.1 0 0.2
v -0.1 1.1 0.2
v 0.1 0 0.2
v 0.1 1.1 0.2
v 0.2 3 0.2
v 0.2 3.2 0.2
v -0.2 0 0.1
v -0.2 1.1 0.1
v -0.1 0 0.1
v -0.1 1.1 0.1
v 0.1 0 0.1
v 0.1 1.1 0.1
v 0.2 0 0.1
v 0.2 1.1 0.1
v -0.2 0 -0.1
v -0.2 1.1 -0.1
v -0.1 0 -0.1
v -0.1 1.1 -0.1
v 0.1 0 -0.1
v 0.1 1.1 -0.1
v 0.2 0 -0.1
v 0.2 1.1 -0.1
v -0.2 3 -0.2
v -0.2 3.2 -0.2
v -0.1 0 -0.2
v -0.1 1.1 -0.2
v 0.1 0 -0.2
v 0.1 1.1 -0.2
v 0.2 3 -0.2
v 0.2 3.2 -0.2
v -0.3 2.8 -0.3
v -0.3 3 -0.3
v 0.3 2.8 -0.3
v 0.3 3 -0.3
v -0.4 2.5 -0.4
v -0.4 2.8 -0.4
v 0.4 2.5 -0.4
v 0.4 2.8 -0.4
v -0.6 2 -0.5
v -0.6 2.5 -0.5
v -0.5 2 -0.5
v -0.5 2.5 -0.5
v 0.5 2 -0.5
v 0.5 2.5 -0.5
v 0.6 2 -0.5
v 0.6 2.5 -0.5
v -0.5 2 -0.6
v -0.5 2.5 -0.6
v 0.5 2 -0.6
v 0.5 2.5 -0.6
v -0.8 1.1 -0.7
v -0.8 2 -0.7
v -0.7 1.1 -0.7
v -0.7 2 -0.7
v 0.7 1.1 -0.7
v 0.7 2 -0.7
v 0.8 1.1 -0.7
v 0.8 2 -0.7
v -0.7 1.1 -0.8
v -0.7 2 -0.8
v 0.7 1.1 -0.8
v 0.7 2 -0.8
v -0.1 0 0.2
v 0.1 0 0.2
v -0.2 0 0.1
v -0.1 0 0.1
v 0.1 0 0.1
v 0.2 0 0.1
v -0.2 0 -0.1
v -0.1 0 -0.1
v 0.1 0 -0.1
v 0.2 0 -0.1
v -0.1 0 -0.2
v 0.1 0 -0.2
v -0.7 1.1 0.8
v 0.7 1.1 0.8
v -0.8 1.1 0.7
v -0.7 1.1 0.7
v 0.7 1.1 0.7
v 0.8 1.1 0.7
v -0.1 1.1 0.2
v 0.1 1.1 0.2
v -0.2 1.1 0.1
v -0.1 1.1 0.1
v 0.1 1.1 0.1
v 0.2 1.1 0.1
v -0.2 1.1 -0.1
v -0.1 1.1 -0.1
v 0.1 1.1 -0.1
v 0.2 1.1 -0.1
v -0.1 1.1 -0.2
v 0.1 1.1 -0.2
v -0.8 1.1 -0.7
v -0.7 1.1 -0.7
v 0.7 1.1 -0.7
v 0.8 1.1 -0.7
v -0.7 1.1 -0.8
v 0.7 1.1 -0.8
v -0.7 2 0.8
v 0.7 2 0.8
v -0.8 2 0.7
v -0.7 2 0.7
v 0.7 2 0.7
v 0.8 2 0.7
v -0.5 2 0.6
v 0.5 2 0.6
v -0.6 2 0.5
v -0.5 2 0.5
v 0.5 2 0.5
v 0.6 2 0.5
v -0.6 2 -0.5
v -0.5 2 -0.5
v 0.5 2 -0.5
v 0.6 2 -0.5
v -0.5 2 -0.6
v 0.5 2 -0.6
v -0.8 2 -0.7
v -0.7 2 -0.7
v 0.7 2 -0.7
v 0.8 2 -0.7
v -0.7 2 -0.8
v 0.7 2 -0.8
v -0.5 2.5 0.6
v 0.5 2.5 0.6
v -0.6 2.5 0.5
v -0.5 2.5 0.5
v 0.5 2.5 0.5
v 0.6 2.5 0.5
v -0.4 2.5 0.4
v 0.4 2.5 0.4
v -0.4 2.5 -0.4
v 0.4 2.5 -0.4
v -0.6 2.5 -0.5
v -0.5 2.5 -0.5
v 0.5 2.5 -0.5
v 0.6 2.5 -0.5
v -0.5 2.5 -0.6
v 0.5 2.5 -0.6
v -0.4 2.8 0.4
v 0.4 2.8 0.4
v -0.3 2.8 0.3
v 0.3 2.8 0.3
v -0.3 2.8 -0.3
v 0.3 2.8 -0.3
v -0.4 2.8 -0.4
v 0.4 2.8 -0.4
v -0.3 3 0.3
v 0.3 3 0.3
v -0.2 3 0.2
v 0.2 3 0.2
v -0.2 3 -0.2
v 0.2 3 -0.2
v -0.3 3 -0.3
v 0.3 3 -0.3
v -0.2 3.2 0.2
v 0.2 3.2 0.2
v -0.2 3.2 -0.2
v 0.2 3.2 -0.2

# faces
f 3/1/1 2/1/1 1/1/1
f 4/1/1 2/1/1 3/1/1
f 9/1/1 6/1/1 5/1/1
f 10/1/1 6/1/1 9/1/1
f 11/1/1 8/1/1 7/1/1
f 12/1/1 8/1/1 11/1/1
f 15/1/1 14/1/1 13/1/1
f 16/1/1 14/1/1 15/1/1
f 21/1/1 18/1/1 17/1/1
f 22/1/1 18/1/1 21/1/1
f 23/1/1 20/1/1 19/1/1
f 24/1/1 20/1/1 23/1/1
f 27/1/1 26/1/1 25/1/1
f 28/1/1 26/1/1 27/1/1
f 31/1/1 30/1/1 29/1/1
f 32/1/1 30/1/1 31/1/1
f 35/2/1 34/2/1 33/2/1
f 36/2/1 34/2/1 35/2/1
f 39/1/1 38/1/1 37/1/1
f 40/1/1 38/1/1 39/1/1
f 45/2/1 42/2/1 41/2/1
f 46/2/1 42/2/1 45/2/1
f 47/2/1 44/2/1 43/2/1
f 48/2/1 44/2/1 47/2/1
f 49/2/2 50/2/2 53/2/2
f 53/2/2 50/2/2 54/2/2
f 51/2/2 52/2/2 55/2/2
f 55/2/2 52/2/2 56/2/2
f 57/2/2 58/2/2 59/2/2
f 59/2/2 58/2/2 60/2/2
f 61/1/2 62/1/2 63/1/2
f 63/1/2 62/1/2 64/1/2
f 65/1/2 66/1/2 67/1/2
f 67/1/2 66/1/2 68/1/2
f 69/1/2 70/1/2 71/1/2
f 71/1/2 70/1/2 72/1/2
f 73/1/2 74/1/2 77/1/2
f 77/1/2 74/1/2 78/1/2
f 75/1/2 76/1/2 79/1/2
f 79/1/2 76/1/2 80/1/2
f 81/1/2 82/1/2 83/1/2
f 83/1/2 82/1/2 84/1/2
f 85/1/2 86/1/2 89/1/2
f 89/1/2 86/1/2 90/1/2
f 87/1/2 88/1/2 91/1/2
f 91/1/2 88/1/2 92/1/2
f 93/1/2 94/1/2 95/1/2
f 95/1/2 94/1/2 96/1/2
f 99/1/3 98/1/3 97/1/3
f 100/1/3 98/1/3 99/1/3
f 103/1/3 102/1/3 101/1/3
f 104/1/3 102/1/3 103/1/3
f 107/1/3 106/1/3 105/1/3
f 108/1/3 106/1/3 107/1/3
f 111/1/3 110/1/3 109/1/3
f 112/1/3 110/1/3 111/1/3
f 115/1/3 114/1/3 113/1/3
f 116/1/3 114/1/3 115/1/3
f 119/1/3 118/1/3 117/1/3
f 120/1/3 118/1/3 119/1/3
f 123/1/3 122/1/3 121/1/3
f 124/1/3 122/1/3 123/1/3
f 127/1/3 126/1/3 125/1/3
f 128/1/3 126/1/3 127/1/3
f 133/2/3 132/2/3 131/2/3
f 134/2/3 132/2/3 133/2/3
f 135/1/3 130/1/3 129/1/3
f 136/1/3 130/1/3 135/1/3
f 139/2/3 138/2/3 137/2/3
f 140/2/3 138/2/3 139/2/3
f 143/2/3 142/2/3 141/2/3
f 144/2/3 142/2/3 143/2/3
f 145/2/4 146/2/4 147/2/4
f 147/2/4 146/2/4 148/2/4
f 149/2/4 150/2/4 151/2/4
f 151/2/4 150/2/4 152/2/4
f 155/2/4 156/2/4 157/2/4
f 157/2/4 156/2/4 158/2/4
f 153/1/4 154/1/4 159/1/4
f 159/1/4 154/1/4 160/1/4
f 161/1/4 162/1/4 163/1/4
f 163/1/4 162/1/4 164/1/4
f 165/1/4 166/1/4 167/1/4
f 167/1/4 166/1/4 168/1/4
f 169/1/4 170/1/4 171/1/4
f 171/1/4 170/1/4 172/1/4
f 173/1/4 174/1/4 175/1/4
f 175/1/4 174/1/4 176/1/4
f 177/1/4 178/1/4 179/1/4
f 179/1/4 178/1/4 180/1/4
f 181/1/4 182/1/4 183/1/4
f 183/1/4 182/1/4 184/1/4
f 185/1/4 186/1/4 187/1/4
f 187/1/4 186/1/4 188/1/4
f 189/1/4 190/1/4 191/1/4
f 191/1/4 190/1/4 192/1/4
f 196/2/5 194/2/5 193/2/5
f 197/2/5 194/2/5 196/2/5
f 199/2/5 196/2/5 195/2/5
f 199/2/5 198/2/5 197/2/5
f 199/2/5 197/2/5 196/2/5
f 200/2/5 198/2/5 199/2/5
f 201/2/5 198/2/5 200/2/5
f 202/2/5 198/2/5 201/2/5
f 203/2/5 201/2/5 200/2/5
f 204/2/5 201/2/5 203/2/5
f 208/1/5 206/1/5 205/1/5
f 209/1/5 206/1/5 208/1/5
f 211/1/5 208/1/5 207/1/5
f 211/1/5 210/1/5 209/1/5
f 211/1/5 209/1/5 208/1/5
f 212/1/5 210/1/5 211/1/5
f 213/1/5 211/1/5 207/1/5
f 214/1/5 211/1/5 213/1/5
f 215/1/5 210/1/5 212/1/5
f 216/1/5 210/1/5 215/1/5
f 217/1/5 213/1/5 207/1/5
f 220/1/5 210/1/5 216/1/5
f 221/1/5 218/1/5 217/1/5
f 222/1/5 220/1/5 219/1/5
f 223/1/5 221/1/5 217/1/5
f 223/1/5 222/1/5 221/1/5
f 223/1/5 217/1/5 207/1/5
f 224/1/5 222/1/5 223/1/5
f 225/1/5 220/1/5 222/1/5
f 225/1/5 222/1/5 224/1/5
f 225/1/5 210/1/5 220/1/5
f 226/1/5 210/1/5 225/1/5
f 227/1/5 225/1/5 224/1/5
f 228/1/5 225/1/5 227/1/5
f 229/1/6 230/1/6 232/1/6
f 232/1/6 230/1/6 233/1/6
f 231/1/6 232/1/6 235/1/6
f 233/1/6 234/1/6 235/1/6
f 232/1/6 233/1/6 235/1/6
f 235/1/6 234/1/6 236/1/6
f 231/1/6 235/1/6 237/1/6
f 237/1/6 235/1/6 238/1/6
f 236/1/6 234/1/6 239/1/6
f 239/1/6 234/1/6 240/1/6
f 231/1/6 237/1/6 241/1/6
f 240/1/6 234/1/6 244/1/6
f 241/1/6 242/1/6 245/1/6
f 243/1/6 244/1/6 246/1/6
f 241/1/6 245/1/6 247/1/6
f 245/1/6 246/1/6 247/1/6
f 231/1/6 241/1/6 247/1/6
f 247/1/6 246/1/6 248/1/6
f 246/1/6 244/1/6 249/1/6
f 248/1/6 246/1/6 249/1/6
f 244/1/6 234/1/6 249/1/6
f 249/1/6 234/1/6 250/1/6
f 248/1/6 249/1/6 251/1/6
f 251/1/6 249/1/6 252/1/6
f 253/1/6 254/1/6 256/1/6
f 256/1/6 254/1/6 257/1/6
f 255/1/6 256/1/6 259/1/6
f 257/1/6 258/1/6 259/1/6
f 256/1/6 257/1/6 259/1/6
f 259/1/6 258/1/6 260/1/6
f 255/1/6 259/1/6 261/1/6
f 260/1/6 258/1/6 262/1/6
f 255/1/6 261/1/6 263/1/6
f 261/1/6 262/1/6 263/1/6
f 263/1/6 262/1/6 264/1/6
f 262/1/6 258/1/6 265/1/6
f 264/1/6 262/1/6 265/1/6
f 265/1/6 258/1/6 266/1/6
f 264/1/6 265/1/6 267/1/6
f 267/1/6 265/1/6 268/1/6
f 269/1/6 270/1/6 271/1/6
f 271/1/6 270/1/6 272/1/6
f 269/1/6 271/1/6 273/1/6
f 272/1/6 270/1/6 274/1/6
f 269/1/6 273/1/6 275/1/6
f 273/1/6 274/1/6 275/1/6
f 274/1/6 270/1/6 276/1/6
f 275/1/6 274/1/6 276/1/6
f 277/1/6 278/1/6 279/1/6
f 279/1/6 278/1/6 280/1/6
f 277/1/6 279/1/6 281/1/6
f 280/1/6 278/1/6 282/1/6
f 277/1/6 281/1/6 283/1/6
f 281/1/6 282/1/6 283/1/6
f 282/1/6 278/1/6 284/1/6
f 283/1/6 282/1/6 284/1/6
f 285/1/6 286/1/6 287/1/6
f 287/1/6 286/1/6 288/1/6
