# MagicaVoxel @ Ephtracy

# group
o 

# material
mtllib wolfClown3.mtl
usemtl palette

# normals
vn -1 0 0
vn 1 0 0
vn 0 0 1
vn 0 0 -1
vn 0 -1 0
vn 0 1 0

# texcoords
vt 0.970703 0.5
vt 0.978516 0.5
vt 0.990234 0.5

# verts
v -0.2 1 0.3
v -0.2 1 -0.1
v -0.2 1.3 0.3
v -0.2 1.3 -0.1
v -0.1 1.4 0.1
v -0.1 1.4 2.98023e-08
v -0.1 1.5 0.1
v -0.1 1.5 2.98023e-08
v 0 1.3 0.1
v 0 1.3 2.98023e-08
v 0 1.4 0.1
v 0 1.4 2.98023e-08
v 0.1 1.3 0.1
v 0.1 1.3 2.98023e-08
v 0.1 1.5 0.1
v 0.1 1.5 2.98023e-08
v 0.2 1 0.3
v 0.2 1 -0.1
v 0.2 1.3 0.3
v 0.2 1.3 -0.1
v -0.2 1 0.3
v -0.2 1.3 0.3
v 0.2 1 0.3
v 0.2 1.3 0.3
v -0.1 1.4 0.1
v -0.1 1.5 0.1
v 0 1.3 0.1
v 0 1.4 0.1
v 0 1.5 0.1
v 0.1 1.3 0.1
v 0.1 1.5 0.1
v -0.1 1.4 2.98023e-08
v -0.1 1.5 2.98023e-08
v 0 1.3 2.98023e-08
v 0 1.4 2.98023e-08
v 0 1.5 2.98023e-08
v 0.1 1.3 2.98023e-08
v 0.1 1.5 2.98023e-08
v -0.2 1 -0.1
v -0.2 1.3 -0.1
v 0.2 1 -0.1
v 0.2 1.3 -0.1
v -0.2 1 0.3
v 0.2 1 0.3
v -0.2 1 -0.1
v 0.2 1 -0.1
v -0.1 1.4 0.1
v 0 1.4 0.1
v -0.1 1.4 2.98023e-08
v 0 1.4 2.98023e-08
v -0.2 1.3 0.3
v 0.2 1.3 0.3
v 0 1.3 0.1
v 0.1 1.3 0.1
v 0 1.3 2.98023e-08
v 0.1 1.3 2.98023e-08
v -0.2 1.3 -0.1
v 0.2 1.3 -0.1
v -0.1 1.5 0.1
v 0 1.5 0.1
v 0.1 1.5 0.1
v -0.1 1.5 2.98023e-08
v 0 1.5 2.98023e-08
v 0.1 1.5 2.98023e-08

# faces
f 3/3/1 2/3/1 1/3/1
f 4/3/1 2/3/1 3/3/1
f 7/2/1 6/2/1 5/2/1
f 8/2/1 6/2/1 7/2/1
f 11/1/1 10/1/1 9/1/1
f 12/1/1 10/1/1 11/1/1
f 13/1/2 14/1/2 15/1/2
f 15/1/2 14/1/2 16/1/2
f 17/3/2 18/3/2 19/3/2
f 19/3/2 18/3/2 20/3/2
f 23/3/3 22/3/3 21/3/3
f 24/3/3 22/3/3 23/3/3
f 28/2/3 26/2/3 25/2/3
f 29/2/3 26/2/3 28/2/3
f 30/1/3 28/1/3 27/1/3
f 30/1/3 29/1/3 28/1/3
f 31/1/3 29/1/3 30/1/3
f 32/2/4 33/2/4 35/2/4
f 35/2/4 33/2/4 36/2/4
f 34/1/4 35/1/4 37/1/4
f 35/1/4 36/1/4 37/1/4
f 37/1/4 36/1/4 38/1/4
f 39/3/4 40/3/4 41/3/4
f 41/3/4 40/3/4 42/3/4
f 45/3/5 44/3/5 43/3/5
f 46/3/5 44/3/5 45/3/5
f 49/2/5 48/2/5 47/2/5
f 50/2/5 48/2/5 49/2/5
f 51/3/6 52/3/6 53/3/6
f 53/3/6 52/3/6 54/3/6
f 51/3/6 53/3/6 55/3/6
f 54/3/6 52/3/6 56/3/6
f 51/3/6 55/3/6 57/3/6
f 55/3/6 56/3/6 57/3/6
f 56/3/6 52/3/6 58/3/6
f 57/3/6 56/3/6 58/3/6
f 59/2/6 60/2/6 62/2/6
f 60/1/6 61/1/6 63/1/6
f 62/2/6 60/2/6 63/2/6
f 63/1/6 61/1/6 64/1/6
